<?xml version="1.0" encoding="utf-8"?>
<svg viewBox="9.5227 179.1422 467.5318 230.6418" width="467.532" height="230.642" xmlns="http://www.w3.org/2000/svg">
  <defs>
    <clipPath id="920603b272">
      <path d="M 0.0273438 197.046875 L 166.3125 197.046875 L 166.3125 253.972656 L 0.0273438 253.972656 Z M 0.0273438 197.046875 " clip-rule="nonzero"/>
    </clipPath>
    <clipPath id="725528c7a9">
      <path d="M 335 156 L 429.972656 156 L 429.972656 203 L 335 203 Z M 335 156 " clip-rule="nonzero"/>
    </clipPath>
    <clipPath id="02a64ff441">
      <path d="M 334.480469 159.230469 L 428.804688 156.0625 L 430.289062 200.230469 L 335.964844 203.398438 Z M 334.480469 159.230469 " clip-rule="nonzero"/>
    </clipPath>
    <clipPath id="7dfb7d5e30">
      <path d="M 334.480469 159.230469 L 478.214844 154.402344 L 479.699219 198.570312 L 335.964844 203.398438 Z M 334.480469 159.230469 " clip-rule="nonzero"/>
    </clipPath>
    <clipPath id="650bddca03">
      <path d="M 53 167 L 84 167 L 84 212 L 53 212 Z M 53 167 " clip-rule="nonzero"/>
    </clipPath>
    <clipPath id="172d4bf505">
      <path d="M 50.78125 143.273438 L 136.914062 154.683594 L 127.078125 228.941406 L 40.941406 217.527344 Z M 50.78125 143.273438 " clip-rule="nonzero"/>
    </clipPath>
    <clipPath id="60505cc341">
      <path d="M 50.78125 143.273438 L 136.914062 154.683594 L 127.078125 228.941406 L 40.941406 217.527344 Z M 50.78125 143.273438 " clip-rule="nonzero"/>
    </clipPath>
    <clipPath id="82a92901dc">
      <path d="M 82 151 L 122 151 L 122 217 L 82 217 Z M 82 151 " clip-rule="nonzero"/>
    </clipPath>
    <clipPath id="f2d586a034">
      <path d="M 50.78125 143.273438 L 136.914062 154.683594 L 127.078125 228.941406 L 40.941406 217.527344 Z M 50.78125 143.273438 " clip-rule="nonzero"/>
    </clipPath>
    <clipPath id="83354ae4a1">
      <path d="M 50.78125 143.273438 L 136.914062 154.683594 L 127.078125 228.941406 L 40.941406 217.527344 Z M 50.78125 143.273438 " clip-rule="nonzero"/>
    </clipPath>
  </defs>
  <g fill="#c9ab76" fill-opacity="1" transform="matrix(1.088135004043579, 0, 0, 1.088135004043579, 9.186202049255371, 99.05467224121095)" style="">
    <g transform="translate(142.872462, 234.155381)">
      <g>
        <path d="M 100.527344 -142.875 C 98.265625 -148.222656 94.773438 -151.511719 89.835938 -152.746094 C 83.464844 -154.390625 76.269531 -152.746094 68.867188 -149.25 L 68.867188 -149.042969 C 53.039062 -141.230469 37.003906 -123.757812 27.546875 -108.132812 C 31.246094 -120.675781 35.566406 -132.390625 40.5 -143.082031 C 42.347656 -146.988281 42.144531 -151.511719 40.085938 -155.417969 L 38.648438 -158.296875 C 37.828125 -159.527344 36.386719 -160.554688 34.742188 -160.554688 C 33.304688 -160.351562 31.863281 -159.527344 31.042969 -158.089844 C 13.363281 -123.347656 2.054688 -68.25 0 -6.785156 C -0.207031 -2.878906 2.054688 0.824219 5.550781 2.261719 L 7.195312 3.082031 C 7.605469 3.289062 8.222656 3.496094 8.839844 3.496094 C 9.664062 3.496094 10.484375 3.289062 11.101562 2.878906 C 12.335938 2.054688 13.15625 0.617188 13.15625 -0.824219 C 13.363281 -33.714844 16.855469 -64.140625 23.230469 -91.480469 L 23.230469 -91.6875 C 27.753906 -108.132812 49.75 -136.09375 70.101562 -146.371094 C 70.308594 -146.371094 82.230469 -150.484375 87.371094 -144.933594 C 92.304688 -140 90.042969 -103.199219 68.457031 -61.878906 C 63.523438 -52.421875 58.179688 -43.789062 52.832031 -36.386719 C 37.210938 -36.386719 25.492188 -30.015625 20.761719 -23.230469 C 17.679688 -18.503906 17.269531 -13.566406 19.53125 -9.046875 C 21.585938 -4.933594 25.082031 -2.878906 29.398438 -2.878906 L 29.808594 -2.878906 C 40.5 -2.878906 55.710938 -14.597656 69.074219 -32.277344 L 69.28125 -32.277344 C 89.015625 -32.277344 100.320312 -39.472656 100.9375 -39.882812 C 101.554688 -40.292969 101.761719 -41.320312 101.351562 -41.9375 C 100.9375 -42.761719 99.910156 -42.964844 99.292969 -42.347656 C 99.089844 -42.347656 89.015625 -35.976562 71.335938 -35.359375 C 74.007812 -39.058594 76.476562 -42.761719 78.941406 -46.871094 C 93.949219 -72.570312 109.574219 -121.496094 100.527344 -142.875 Z M 42.761719 -23.847656 C 35.359375 -15.625 28.371094 -10.894531 24.257812 -11.308594 C 23.4375 -11.308594 21.996094 -11.71875 21.175781 -13.980469 C 20.761719 -16.855469 21.996094 -19.53125 23.230469 -21.378906 C 27.34375 -27.34375 37.210938 -32.890625 50.570312 -33.304688 C 47.898438 -29.808594 45.433594 -26.726562 42.761719 -23.847656 Z M 42.761719 -23.847656 "/>
      </g>
    </g>
  </g>
  <g fill="#c9ab76" fill-opacity="1" transform="matrix(1.088135004043579, 0, 0, 1.088135004043579, 9.186202049255371, 99.05467224121095)" style="">
    <g transform="translate(240.297787, 234.155381)">
      <g>
        <path d="M 84.285156 -160.351562 C 74.417969 -159.734375 57.152344 -150.484375 40.703125 -131.777344 C 26.929688 -116.152344 9.046875 -87.988281 1.4375 -43.582031 C -3.699219 -13.15625 6.167969 -1.851562 15.417969 2.054688 C 18.914062 3.699219 23.023438 4.523438 27.34375 4.523438 C 33.304688 4.523438 40.292969 3.082031 47.488281 0.207031 L 49.542969 -0.824219 L 55.507812 -3.496094 C 71.128906 -11.511719 86.34375 -24.667969 98.265625 -40.292969 C 98.882812 -40.910156 98.675781 -41.730469 98.0625 -42.347656 C 97.445312 -42.761719 96.417969 -42.761719 96.003906 -42.144531 C 82.230469 -24.257812 64.960938 -10.691406 48.925781 -3.699219 C 48.722656 -3.699219 48.515625 -3.699219 48.515625 -3.496094 C 42.144531 -0.617188 32.6875 0 25.285156 -5.757812 C 17.269531 -11.71875 14.390625 -23.230469 17.269531 -38.238281 C 25.699219 -85.109375 43.992188 -112.65625 57.765625 -127.457031 C 72.980469 -143.699219 87.578125 -149.660156 90.660156 -149.457031 C 96.003906 -148.839844 96.828125 -141.644531 97.03125 -140.410156 C 97.03125 -130.746094 93.539062 -119.441406 87.371094 -112.246094 C 86.960938 -111.628906 86.960938 -110.804688 87.578125 -110.191406 C 88.191406 -109.574219 89.222656 -109.777344 89.835938 -110.394531 C 96.417969 -118 100.117188 -129.925781 99.910156 -140.203125 L 99.910156 -140.410156 C 99.910156 -145.136719 99.089844 -149.457031 97.238281 -152.949219 C 94.566406 -158.296875 90.042969 -160.761719 84.285156 -160.351562 Z M 84.285156 -160.351562 "/>
      </g>
    </g>
  </g>
  <g clip-path="url(#920603b272)" transform="matrix(1.088135004043579, 0, 0, 1.088135004043579, 9.186202049255371, 99.05467224121095)" style="">
    <path fill="#c9ab76" d="M 18.488281 238.117188 C 20.632812 238.886719 22.625 239.644531 24.65625 240.3125 C 26.683594 240.980469 28.300781 242.277344 29.855469 243.652344 C 30.960938 244.628906 31.320312 245.914062 30.804688 247.335938 C 30.472656 248.273438 30.113281 249.238281 29.636719 250.113281 C 27.890625 253.296875 24.988281 254.335938 21.519531 253.386719 C 17 252.152344 15.613281 250.382812 14.828125 244.832031 C 14.664062 243.664062 14.804688 242.457031 14.804688 241.070312 C 14.019531 241.171875 13.210938 241.1875 12.441406 241.378906 C 9.421875 242.109375 6.558594 243.125 4.15625 245.257812 C 3.324219 245.988281 2.140625 246.375 1.074219 246.785156 C 0.371094 247.054688 0.164062 246.773438 0.40625 246.039062 C 1.011719 244.179688 2.21875 242.546875 3.835938 241.429688 C 7.304688 239.003906 11.027344 237.320312 15.394531 237.527344 C 15.640625 237.539062 16.039062 237.28125 16.128906 237.050781 C 18.414062 231.605469 21.894531 227.046875 25.9375 222.769531 C 30.550781 217.890625 36.097656 213.972656 42.25 211.265625 C 47.589844 208.886719 52.984375 206.34375 58.726562 205.113281 C 67.535156 203.222656 76.433594 203.097656 85.359375 204.597656 C 94.65625 206.152344 103.777344 208.453125 112.917969 210.632812 C 118.980469 212.085938 125.054688 213.589844 131.285156 213.949219 C 136.074219 214.230469 140.902344 214.152344 145.707031 214 C 149.53125 213.882812 153.359375 213.5625 157.160156 213.046875 C 161.71875 212.433594 165.90625 210.53125 170.121094 208.8125 C 175.601562 206.589844 180.058594 203.082031 183.308594 198.101562 C 183.65625 197.574219 184.027344 197.046875 184.734375 197.34375 C 185.441406 197.636719 185.363281 198.332031 185.222656 198.898438 C 184.835938 200.589844 184 202.160156 182.808594 203.429688 C 179.441406 206.972656 175.746094 210.042969 171.132812 211.878906 C 166.640625 213.679688 162.222656 215.707031 157.378906 216.414062 C 154.246094 216.863281 151.074219 217.195312 147.902344 217.363281 C 143.226562 217.59375 138.539062 217.800781 133.851562 217.710938 C 126.929688 217.582031 120.203125 216.003906 113.484375 214.488281 C 105.984375 212.816406 98.523438 210.878906 90.996094 209.285156 C 84.820312 207.976562 78.578125 206.910156 72.195312 207.117188 C 67.703125 207.269531 63.089844 207.140625 58.816406 208.503906 C 50.03125 211.300781 41.054688 213.84375 33.527344 219.507812 C 27.570312 223.992188 22.457031 229.292969 19.261719 236.179688 C 18.964844 236.792969 18.761719 237.449219 18.488281 238.117188 Z M 17.640625 241.621094 C 17.140625 243.675781 17.527344 245.5 18.105469 247.3125 C 18.875 249.675781 21.097656 251.125 23.71875 251.011719 C 25.988281 250.90625 27.324219 249.636719 27.953125 246.964844 C 27.96875 246.941406 27.992188 246.902344 27.980469 246.875 C 27.839844 246.503906 27.8125 245.988281 27.542969 245.769531 C 24.691406 243.433594 21.265625 242.445312 17.640625 241.621094 Z M 17.640625 241.621094 " fill-opacity="1" fill-rule="nonzero"/>
  </g>
  <g clip-path="url(#725528c7a9)" transform="matrix(1.088135004043579, 0, 0, 1.088135004043579, 9.186202049255371, 99.05467224121095)" style="">
    <g clip-path="url(#02a64ff441)">
      <g clip-path="url(#7dfb7d5e30)">
        <path fill="#c9ab76" d="M 349.863281 190.589844 C 351.546875 191.132812 353.109375 191.667969 354.699219 192.132812 C 356.292969 192.597656 357.578125 193.558594 358.820312 194.585938 C 359.703125 195.3125 360.015625 196.300781 359.652344 197.417969 C 359.417969 198.152344 359.164062 198.910156 358.820312 199.597656 C 357.546875 202.113281 355.324219 202.996094 352.613281 202.347656 C 349.074219 201.511719 347.953125 200.171875 347.203125 195.894531 C 347.042969 194.992188 347.121094 194.050781 347.085938 192.976562 C 346.480469 193.078125 345.851562 193.105469 345.261719 193.277344 C 342.941406 193.921875 340.746094 194.785156 338.941406 196.5 C 338.3125 197.089844 337.40625 197.417969 336.589844 197.765625 C 336.050781 197.992188 335.882812 197.777344 336.054688 197.203125 C 336.472656 195.746094 337.367188 194.449219 338.589844 193.539062 C 341.214844 191.570312 344.058594 190.167969 347.449219 190.214844 C 347.640625 190.214844 347.941406 190.007812 348.003906 189.824219 C 349.636719 185.542969 352.214844 181.917969 355.238281 178.5 C 358.6875 174.59375 362.886719 171.414062 367.582031 169.152344 C 371.664062 167.171875 375.777344 165.058594 380.195312 163.957031 C 386.976562 162.261719 393.875 161.929688 400.832031 162.863281 C 408.082031 163.824219 415.210938 165.371094 422.355469 166.824219 C 427.09375 167.792969 431.839844 168.796875 436.679688 168.914062 C 440.398438 169.007812 444.140625 168.824219 447.859375 168.578125 C 450.824219 168.390625 453.78125 168.039062 456.714844 167.542969 C 460.234375 166.945312 463.429688 165.363281 466.652344 163.921875 C 470.84375 162.054688 474.207031 159.222656 476.597656 155.273438 C 476.851562 154.855469 477.128906 154.4375 477.683594 154.648438 C 478.238281 154.859375 478.195312 155.398438 478.101562 155.839844 C 477.847656 157.164062 477.242188 158.402344 476.347656 159.417969 C 473.832031 162.253906 471.042969 164.730469 467.519531 166.273438 C 464.082031 167.785156 460.707031 169.472656 456.972656 170.144531 C 454.554688 170.578125 452.105469 170.917969 449.652344 171.128906 C 446.03125 171.429688 442.402344 171.710938 438.769531 171.765625 C 433.398438 171.84375 428.140625 170.796875 422.894531 169.796875 C 417.035156 168.699219 411.199219 167.386719 405.324219 166.351562 C 400.503906 165.496094 395.636719 164.832031 390.691406 165.15625 C 387.210938 165.394531 383.636719 165.414062 380.355469 166.582031 C 373.617188 168.980469 366.726562 171.1875 361.039062 175.773438 C 356.535156 179.402344 352.710938 183.648438 350.410156 189.066406 C 350.199219 189.550781 350.054688 190.066406 349.863281 190.589844 Z M 349.296875 193.332031 C 348.964844 194.9375 349.308594 196.339844 349.804688 197.730469 C 350.464844 199.539062 352.222656 200.609375 354.253906 200.449219 C 356.011719 200.3125 357.015625 199.289062 357.433594 197.203125 C 357.441406 197.183594 357.460938 197.152344 357.449219 197.132812 C 357.332031 196.847656 357.296875 196.449219 357.082031 196.289062 C 354.8125 194.550781 352.128906 193.875 349.296875 193.332031 Z M 349.296875 193.332031 " fill-opacity="1" fill-rule="nonzero"/>
      </g>
    </g>
  </g>
  <g clip-path="url(#650bddca03)" transform="matrix(1.088135004043579, 0, 0, 1.088135004043579, 9.186202049255371, 99.05467224121095)" style="">
    <g clip-path="url(#172d4bf505)">
      <g clip-path="url(#60505cc341)">
        <path fill="#c9ab76" d="M 59.148438 167.933594 C 59.148438 167.933594 61.671875 170.335938 64.027344 170.132812 C 64.027344 170.132812 67.503906 168.265625 69.175781 168.359375 C 69.175781 168.359375 72.808594 171.167969 76.761719 169.621094 C 76.761719 169.621094 78.035156 171.730469 77.714844 174.144531 C 77.285156 176.414062 74 177.789062 73.53125 181.34375 C 73.167969 185.046875 74.214844 189.839844 74.9375 193.167969 C 75.515625 196.605469 76.085938 209.867188 61.292969 204.414062 C 69.359375 209.878906 78.5625 205.796875 80.527344 195.847656 C 81.144531 192.179688 83.246094 193.878906 82.984375 196.816406 C 80.609375 221.582031 41.164062 213.902344 58.15625 186.160156 C 60.792969 181.855469 60.796875 176.945312 59.523438 174.835938 C 58.253906 172.726562 58.589844 168.25 59.148438 167.933594 Z M 70.554688 170.609375 C 70.921875 170.785156 71.125 171.203125 71.074219 171.582031 C 71.007812 172.089844 70.449219 172.40625 69.941406 172.335938 C 69.429688 172.269531 69.101562 171.839844 69.167969 171.332031 C 69.203125 171.078125 69.363281 170.839844 69.652344 170.617188 C 69.617188 170.871094 69.855469 171.035156 69.980469 171.050781 C 70.363281 171.101562 70.507812 170.992188 70.539062 170.738281 C 70.554688 170.609375 70.554688 170.609375 70.554688 170.609375 Z M 70.554688 170.609375 " fill-opacity="1" fill-rule="evenodd"/>
      </g>
    </g>
  </g>
  <g clip-path="url(#82a92901dc)" transform="matrix(1.088135004043579, 0, 0, 1.088135004043579, 9.186202049255371, 99.05467224121095)" style="">
    <g clip-path="url(#f2d586a034)">
      <g clip-path="url(#83354ae4a1)">
        <path fill="#c9ab76" d="M 103.753906 210.816406 C 92.835938 210.273438 87.164062 201.378906 87.628906 190.066406 C 87.792969 184.914062 83.847656 187.367188 83.714844 190.320312 C 82.535156 206.066406 92.78125 215.570312 105.410156 216.855469 C 127.980469 219.199219 123.28125 179.535156 114.023438 167.449219 C 114.023438 167.449219 110.878906 171.683594 107.109375 171.832031 C 103.230469 171.835938 99.761719 167.757812 100.441406 159.703125 C 100.582031 166.441406 105.960938 174.652344 111.703125 167.398438 C 113.886719 164.585938 114.484375 161.046875 112.90625 159.285156 C 111.457031 157.542969 103.984375 151.511719 99.53125 151.953125 C 95.074219 152.398438 90.554688 155.289062 89.761719 157.382812 C 88.933594 159.730469 89.308594 160.8125 88.308594 162.488281 C 87.3125 164.167969 84.957031 166.3125 82.816406 167.839844 C 84.582031 174.019531 86.964844 174.59375 92.847656 174.078125 C 95.332031 173.890625 99.933594 177.214844 97.761719 184.8125 C 97.078125 187.050781 95.792969 188.949219 94.632812 190.863281 C 89.179688 199.835938 94.316406 207.886719 103.753906 210.816406 Z M 92.667969 159.835938 C 93.015625 160.140625 93.347656 160.570312 93.277344 161.078125 C 93.179688 161.84375 92.476562 162.265625 91.839844 162.183594 C 91.078125 162.082031 90.636719 161.503906 90.738281 160.742188 C 90.789062 160.363281 91.09375 160.015625 91.363281 159.921875 C 91.332031 160.175781 91.550781 160.464844 91.933594 160.515625 C 92.3125 160.5625 92.617188 160.214844 92.652344 159.960938 C 92.667969 159.835938 92.667969 159.835938 92.667969 159.835938 Z M 92.667969 159.835938 " fill-opacity="1" fill-rule="evenodd"/>
      </g>
    </g>
  </g>
  <g fill="#c9ab76" fill-opacity="1" transform="matrix(1.088135004043579, 0, 0, 1.088135004043579, 9.186202049255371, 99.05467224121095)" style="">
    <g transform="translate(37.431293, 277.827007)">
      <g>
        <path d="M 2.328125 0.109375 C 2.117188 0.109375 1.953125 0.0234375 1.828125 -0.140625 C 1.710938 -0.304688 1.65625 -0.503906 1.65625 -0.734375 C 1.6875 -1.117188 1.765625 -1.347656 1.890625 -1.421875 C 2.023438 -1.503906 2.269531 -1.546875 2.625 -1.546875 C 3.375 -1.546875 3.925781 -1.679688 4.28125 -1.953125 C 4.644531 -2.222656 4.875 -2.554688 4.96875 -2.953125 C 5.0625 -3.359375 5.117188 -3.882812 5.140625 -4.53125 L 5.140625 -19.890625 C 5.117188 -20.535156 5.0625 -21.054688 4.96875 -21.453125 C 4.875 -21.847656 4.644531 -22.179688 4.28125 -22.453125 C 3.925781 -22.722656 3.375 -22.859375 2.625 -22.859375 L 2.40625 -22.859375 C 2.144531 -22.859375 1.960938 -22.90625 1.859375 -23 C 1.753906 -23.09375 1.6875 -23.316406 1.65625 -23.671875 C 1.65625 -23.910156 1.710938 -24.113281 1.828125 -24.28125 C 1.953125 -24.445312 2.117188 -24.53125 2.328125 -24.53125 C 4.023438 -24.445312 5.554688 -24.40625 6.921875 -24.40625 L 12.953125 -24.40625 C 15.429688 -24.40625 17.679688 -23.910156 19.703125 -22.921875 C 21.734375 -21.929688 23.332031 -20.503906 24.5 -18.640625 C 25.675781 -16.785156 26.265625 -14.597656 26.265625 -12.078125 C 26.265625 -9.441406 25.597656 -7.210938 24.265625 -5.390625 C 22.941406 -3.578125 21.21875 -2.222656 19.09375 -1.328125 C 16.96875 -0.441406 14.691406 0 12.265625 0 L 6.921875 0 C 5.554688 0 4.023438 0.0351562 2.328125 0.109375 Z M 12.84375 -1.4375 C 15.863281 -1.4375 18.078125 -2.367188 19.484375 -4.234375 C 20.890625 -6.109375 21.59375 -8.722656 21.59375 -12.078125 C 21.59375 -14.191406 21.210938 -16.078125 20.453125 -17.734375 C 19.691406 -19.398438 18.585938 -20.695312 17.140625 -21.625 C 15.691406 -22.550781 13.976562 -23.015625 12 -23.015625 L 8.96875 -22.984375 L 8.96875 -4.0625 C 8.96875 -3.050781 9.269531 -2.359375 9.875 -1.984375 C 10.488281 -1.617188 11.476562 -1.4375 12.84375 -1.4375 Z M 12.84375 -1.4375 "/>
      </g>
    </g>
  </g>
  <g fill="#c9ab76" fill-opacity="1" transform="matrix(1.088135004043579, 0, 0, 1.088135004043579, 9.186202049255371, 99.05467224121095)" style="">
    <g transform="translate(65.591458, 277.827007)">
      <g>
        <path d="M 2.328125 0.109375 C 2.117188 0.109375 1.953125 0.0234375 1.828125 -0.140625 C 1.710938 -0.304688 1.65625 -0.503906 1.65625 -0.734375 C 1.6875 -1.117188 1.765625 -1.347656 1.890625 -1.421875 C 2.023438 -1.503906 2.269531 -1.546875 2.625 -1.546875 C 3.375 -1.546875 3.925781 -1.679688 4.28125 -1.953125 C 4.644531 -2.222656 4.875 -2.554688 4.96875 -2.953125 C 5.0625 -3.359375 5.117188 -3.882812 5.140625 -4.53125 L 5.140625 -19.890625 C 5.117188 -20.535156 5.0625 -21.054688 4.96875 -21.453125 C 4.875 -21.847656 4.644531 -22.179688 4.28125 -22.453125 C 3.925781 -22.722656 3.375 -22.859375 2.625 -22.859375 L 2.40625 -22.859375 C 2.144531 -22.859375 1.960938 -22.90625 1.859375 -23 C 1.753906 -23.09375 1.6875 -23.316406 1.65625 -23.671875 C 1.65625 -23.910156 1.710938 -24.113281 1.828125 -24.28125 C 1.953125 -24.445312 2.117188 -24.53125 2.328125 -24.53125 C 4.023438 -24.445312 5.554688 -24.40625 6.921875 -24.40625 L 19.078125 -24.40625 C 19.742188 -24.40625 20.078125 -24.097656 20.078125 -23.484375 L 20.1875 -18.0625 C 20.1875 -17.832031 20.070312 -17.644531 19.84375 -17.5 C 19.613281 -17.363281 19.382812 -17.296875 19.15625 -17.296875 C 18.84375 -17.296875 18.566406 -17.351562 18.328125 -17.46875 C 18.097656 -17.582031 17.972656 -17.753906 17.953125 -17.984375 C 17.742188 -19.253906 17.515625 -20.21875 17.265625 -20.875 C 17.023438 -21.53125 16.664062 -22.019531 16.1875 -22.34375 C 15.707031 -22.664062 15.03125 -22.835938 14.15625 -22.859375 L 8.96875 -22.859375 L 8.96875 -13.03125 L 15.984375 -13.03125 C 16.160156 -13.007812 16.300781 -12.914062 16.40625 -12.75 C 16.507812 -12.582031 16.5625 -12.378906 16.5625 -12.140625 C 16.5625 -11.941406 16.507812 -11.765625 16.40625 -11.609375 C 16.300781 -11.453125 16.160156 -11.375 15.984375 -11.375 L 8.96875 -11.375 L 8.96875 -4.0625 C 9.019531 -3.519531 9.082031 -3.085938 9.15625 -2.765625 C 9.238281 -2.441406 9.472656 -2.148438 9.859375 -1.890625 C 10.253906 -1.640625 10.863281 -1.523438 11.6875 -1.546875 L 15.25 -1.546875 C 16.144531 -1.578125 16.820312 -1.726562 17.28125 -2 C 17.75 -2.269531 18.117188 -2.6875 18.390625 -3.25 C 18.660156 -3.8125 18.988281 -4.738281 19.375 -6.03125 C 19.5625 -6.5 20.003906 -6.679688 20.703125 -6.578125 C 20.953125 -6.523438 21.175781 -6.421875 21.375 -6.265625 C 21.570312 -6.109375 21.65625 -5.914062 21.625 -5.6875 L 20.859375 -0.8125 C 20.773438 -0.476562 20.65625 -0.257812 20.5 -0.15625 C 20.34375 -0.0507812 20.085938 0 19.734375 0 L 6.96875 0 C 5.570312 0 4.023438 0.0351562 2.328125 0.109375 Z M 2.328125 0.109375 "/>
      </g>
    </g>
  </g>
  <g fill="#c9ab76" fill-opacity="1" transform="matrix(1.088135004043579, 0, 0, 1.088135004043579, 9.186202049255371, 99.05467224121095)" style="">
    <g transform="translate(88.568306, 277.827007)">
      <g>
        <path d="M 2.40625 0.109375 C 2.164062 0.109375 1.988281 0.0234375 1.875 -0.140625 C 1.757812 -0.304688 1.703125 -0.503906 1.703125 -0.734375 C 1.722656 -1.117188 1.796875 -1.347656 1.921875 -1.421875 C 2.054688 -1.503906 2.304688 -1.546875 2.671875 -1.546875 C 3.421875 -1.546875 3.96875 -1.679688 4.3125 -1.953125 C 4.65625 -2.222656 4.863281 -2.546875 4.9375 -2.921875 C 5.019531 -3.296875 5.078125 -3.832031 5.109375 -4.53125 L 5.1875 -19.890625 C 5.1875 -20.660156 5.101562 -21.242188 4.9375 -21.640625 C 4.769531 -22.046875 4.503906 -22.335938 4.140625 -22.515625 C 3.773438 -22.691406 3.257812 -22.847656 2.59375 -22.984375 C 2.15625 -23.054688 1.882812 -23.128906 1.78125 -23.203125 C 1.675781 -23.285156 1.625 -23.507812 1.625 -23.875 C 1.625 -24.175781 1.707031 -24.378906 1.875 -24.484375 C 2.039062 -24.585938 2.304688 -24.640625 2.671875 -24.640625 C 4.265625 -24.640625 5.523438 -24.53125 6.453125 -24.3125 C 7.390625 -24.09375 8.210938 -23.695312 8.921875 -23.125 C 9.628906 -22.5625 10.410156 -21.703125 11.265625 -20.546875 L 21.859375 -6.609375 L 21.96875 -6.609375 L 21.890625 -19.890625 C 21.867188 -20.585938 21.816406 -21.117188 21.734375 -21.484375 C 21.660156 -21.859375 21.445312 -22.179688 21.09375 -22.453125 C 20.75 -22.722656 20.203125 -22.859375 19.453125 -22.859375 L 19.234375 -22.859375 C 18.972656 -22.859375 18.785156 -22.90625 18.671875 -23 C 18.554688 -23.09375 18.484375 -23.316406 18.453125 -23.671875 C 18.453125 -23.910156 18.515625 -24.113281 18.640625 -24.28125 C 18.773438 -24.445312 18.945312 -24.53125 19.15625 -24.53125 C 20.800781 -24.445312 22.035156 -24.40625 22.859375 -24.40625 C 23.347656 -24.40625 24.289062 -24.429688 25.6875 -24.484375 L 26.5 -24.53125 C 26.726562 -24.53125 26.898438 -24.445312 27.015625 -24.28125 C 27.140625 -24.113281 27.203125 -23.910156 27.203125 -23.671875 C 27.171875 -23.285156 27.085938 -23.050781 26.953125 -22.96875 C 26.828125 -22.894531 26.585938 -22.859375 26.234375 -22.859375 C 25.484375 -22.859375 24.929688 -22.722656 24.578125 -22.453125 C 24.234375 -22.179688 24.019531 -21.859375 23.9375 -21.484375 C 23.863281 -21.117188 23.816406 -20.585938 23.796875 -19.890625 L 23.71875 -0.390625 C 23.6875 -0.0546875 23.363281 0.109375 22.75 0.109375 C 22.257812 0.109375 21.882812 -0.0546875 21.625 -0.390625 L 7.046875 -19.890625 L 6.921875 -19.890625 L 7 -4.53125 C 7.03125 -3.832031 7.082031 -3.296875 7.15625 -2.921875 C 7.226562 -2.546875 7.4375 -2.222656 7.78125 -1.953125 C 8.132812 -1.679688 8.6875 -1.546875 9.4375 -1.546875 L 9.671875 -1.546875 C 9.929688 -1.546875 10.117188 -1.5 10.234375 -1.40625 C 10.347656 -1.320312 10.421875 -1.097656 10.453125 -0.734375 C 10.453125 -0.503906 10.390625 -0.304688 10.265625 -0.140625 C 10.148438 0.0234375 9.976562 0.109375 9.75 0.109375 C 8.09375 0.0351562 6.84375 0 6 0 C 5.476562 0 4.570312 0.0234375 3.28125 0.078125 Z M 2.40625 0.109375 "/>
      </g>
    </g>
  </g>
  <g fill="#c9ab76" fill-opacity="1" transform="matrix(1.088135004043579, 0, 0, 1.088135004043579, 9.186202049255371, 99.05467224121095)" style="">
    <g transform="translate(117.076599, 277.827007)">
      <g>
        <path d="M 2.328125 0.109375 C 2.085938 0.109375 1.910156 0.0234375 1.796875 -0.140625 C 1.679688 -0.304688 1.625 -0.503906 1.625 -0.734375 C 1.644531 -1.117188 1.726562 -1.347656 1.875 -1.421875 C 2.019531 -1.503906 2.257812 -1.546875 2.59375 -1.546875 C 3.34375 -1.546875 3.894531 -1.679688 4.25 -1.953125 C 4.613281 -2.222656 4.847656 -2.550781 4.953125 -2.9375 C 5.054688 -3.320312 5.117188 -3.851562 5.140625 -4.53125 L 5.140625 -19.890625 C 5.117188 -20.554688 5.054688 -21.082031 4.953125 -21.46875 C 4.847656 -21.851562 4.613281 -22.179688 4.25 -22.453125 C 3.894531 -22.722656 3.34375 -22.859375 2.59375 -22.859375 L 2.359375 -22.859375 C 2.128906 -22.859375 1.953125 -22.90625 1.828125 -23 C 1.710938 -23.09375 1.644531 -23.316406 1.625 -23.671875 C 1.625 -23.910156 1.679688 -24.113281 1.796875 -24.28125 C 1.910156 -24.445312 2.085938 -24.53125 2.328125 -24.53125 C 3.992188 -24.445312 5.523438 -24.40625 6.921875 -24.40625 C 8.472656 -24.40625 10.085938 -24.445312 11.765625 -24.53125 C 11.992188 -24.53125 12.164062 -24.445312 12.28125 -24.28125 C 12.394531 -24.113281 12.453125 -23.910156 12.453125 -23.671875 C 12.429688 -23.285156 12.347656 -23.050781 12.203125 -22.96875 C 12.066406 -22.894531 11.816406 -22.859375 11.453125 -22.859375 C 10.703125 -22.859375 10.144531 -22.722656 9.78125 -22.453125 C 9.425781 -22.179688 9.203125 -21.847656 9.109375 -21.453125 C 9.015625 -21.054688 8.957031 -20.535156 8.9375 -19.890625 L 8.9375 -4.53125 C 8.957031 -3.882812 9.015625 -3.359375 9.109375 -2.953125 C 9.203125 -2.554688 9.425781 -2.222656 9.78125 -1.953125 C 10.144531 -1.679688 10.703125 -1.546875 11.453125 -1.546875 L 11.6875 -1.546875 C 11.945312 -1.546875 12.132812 -1.5 12.25 -1.40625 C 12.363281 -1.320312 12.429688 -1.097656 12.453125 -0.734375 C 12.453125 -0.503906 12.394531 -0.304688 12.28125 -0.140625 C 12.164062 0.0234375 11.992188 0.109375 11.765625 0.109375 C 10.109375 0.0351562 8.507812 0 6.96875 0 C 5.539062 0 3.992188 0.0351562 2.328125 0.109375 Z M 2.328125 0.109375 "/>
      </g>
    </g>
  </g>
  <g fill="#c9ab76" fill-opacity="1" transform="matrix(1.088135004043579, 0, 0, 1.088135004043579, 9.186202049255371, 99.05467224121095)" style="">
    <g transform="translate(131.156682, 277.827007)">
      <g>
        <path d="M 10.25 0.78125 C 7.539062 0.78125 5.46875 0.3125 4.03125 -0.625 C 2.601562 -1.570312 1.890625 -2.960938 1.890625 -4.796875 C 1.890625 -5.722656 2.207031 -6.488281 2.84375 -7.09375 C 3.476562 -7.707031 4.296875 -8.015625 5.296875 -8.015625 C 5.890625 -7.984375 6.34375 -7.832031 6.65625 -7.5625 C 6.96875 -7.289062 7.125 -7.039062 7.125 -6.8125 C 7.125 -6.78125 6.992188 -6.6875 6.734375 -6.53125 C 6.472656 -6.382812 6.238281 -6.15625 6.03125 -5.84375 C 5.820312 -5.53125 5.71875 -5.101562 5.71875 -4.5625 C 5.71875 -3.351562 6.085938 -2.421875 6.828125 -1.765625 C 7.566406 -1.109375 8.707031 -0.78125 10.25 -0.78125 C 11.3125 -0.78125 12.238281 -0.984375 13.03125 -1.390625 C 13.832031 -1.804688 14.445312 -2.351562 14.875 -3.03125 C 15.300781 -3.71875 15.515625 -4.4375 15.515625 -5.1875 C 15.515625 -6.113281 15.25 -6.910156 14.71875 -7.578125 C 14.1875 -8.253906 13.535156 -8.816406 12.765625 -9.265625 C 11.992188 -9.710938 10.9375 -10.234375 9.59375 -10.828125 C 8.039062 -11.523438 6.785156 -12.15625 5.828125 -12.71875 C 4.878906 -13.289062 4.070312 -14.046875 3.40625 -14.984375 C 2.738281 -15.929688 2.40625 -17.101562 2.40625 -18.5 C 2.40625 -20.738281 3.171875 -22.410156 4.703125 -23.515625 C 6.234375 -24.628906 8.25 -25.1875 10.75 -25.1875 C 12.71875 -25.1875 14.425781 -24.769531 15.875 -23.9375 C 17.332031 -23.113281 18.0625 -21.90625 18.0625 -20.3125 C 18.0625 -19.382812 17.742188 -18.613281 17.109375 -18 C 16.484375 -17.394531 15.664062 -17.09375 14.65625 -17.09375 C 14.0625 -17.125 13.609375 -17.273438 13.296875 -17.546875 C 12.992188 -17.816406 12.84375 -18.066406 12.84375 -18.296875 C 12.84375 -18.328125 13.015625 -18.414062 13.359375 -18.5625 C 13.710938 -18.71875 14.023438 -18.953125 14.296875 -19.265625 C 14.566406 -19.578125 14.703125 -20.003906 14.703125 -20.546875 C 14.703125 -21.492188 14.332031 -22.238281 13.59375 -22.78125 C 12.863281 -23.320312 11.929688 -23.59375 10.796875 -23.59375 C 9.222656 -23.59375 8.03125 -23.222656 7.21875 -22.484375 C 6.40625 -21.753906 6 -20.847656 6 -19.765625 C 6 -18.867188 6.242188 -18.113281 6.734375 -17.5 C 7.222656 -16.894531 8.007812 -16.296875 9.09375 -15.703125 C 9.96875 -15.242188 10.921875 -14.78125 11.953125 -14.3125 C 13.609375 -13.5625 14.914062 -12.875 15.875 -12.25 C 16.84375 -11.632812 17.65625 -10.820312 18.3125 -9.8125 C 18.976562 -8.8125 19.3125 -7.566406 19.3125 -6.078125 C 19.3125 -4.785156 18.90625 -3.613281 18.09375 -2.5625 C 17.28125 -1.519531 16.179688 -0.703125 14.796875 -0.109375 C 13.421875 0.484375 11.90625 0.78125 10.25 0.78125 Z M 10.25 0.78125 "/>
      </g>
    </g>
  </g>
  <g fill="#c9ab76" fill-opacity="1" transform="matrix(1.088135004043579, 0, 0, 1.088135004043579, 9.186202049255371, 99.05467224121095)" style="">
    <g transform="translate(152.238119, 277.827007)">
      <g>
        <path d="M 2.328125 0.109375 C 2.117188 0.109375 1.953125 0.0234375 1.828125 -0.140625 C 1.710938 -0.304688 1.65625 -0.503906 1.65625 -0.734375 C 1.6875 -1.117188 1.765625 -1.347656 1.890625 -1.421875 C 2.023438 -1.503906 2.269531 -1.546875 2.625 -1.546875 C 3.375 -1.546875 3.925781 -1.679688 4.28125 -1.953125 C 4.644531 -2.222656 4.875 -2.554688 4.96875 -2.953125 C 5.0625 -3.359375 5.117188 -3.882812 5.140625 -4.53125 L 5.140625 -19.890625 C 5.117188 -20.535156 5.0625 -21.054688 4.96875 -21.453125 C 4.875 -21.847656 4.644531 -22.179688 4.28125 -22.453125 C 3.925781 -22.722656 3.375 -22.859375 2.625 -22.859375 L 2.40625 -22.859375 C 2.144531 -22.859375 1.960938 -22.90625 1.859375 -23 C 1.753906 -23.09375 1.6875 -23.316406 1.65625 -23.671875 C 1.65625 -23.910156 1.710938 -24.113281 1.828125 -24.28125 C 1.953125 -24.445312 2.117188 -24.53125 2.328125 -24.53125 C 4.023438 -24.445312 5.554688 -24.40625 6.921875 -24.40625 L 19.078125 -24.40625 C 19.742188 -24.40625 20.078125 -24.097656 20.078125 -23.484375 L 20.1875 -18.0625 C 20.1875 -17.832031 20.070312 -17.644531 19.84375 -17.5 C 19.613281 -17.363281 19.382812 -17.296875 19.15625 -17.296875 C 18.84375 -17.296875 18.566406 -17.351562 18.328125 -17.46875 C 18.097656 -17.582031 17.972656 -17.753906 17.953125 -17.984375 C 17.742188 -19.253906 17.515625 -20.21875 17.265625 -20.875 C 17.023438 -21.53125 16.664062 -22.019531 16.1875 -22.34375 C 15.707031 -22.664062 15.03125 -22.835938 14.15625 -22.859375 L 8.96875 -22.859375 L 8.96875 -13.03125 L 15.984375 -13.03125 C 16.160156 -13.007812 16.300781 -12.914062 16.40625 -12.75 C 16.507812 -12.582031 16.5625 -12.378906 16.5625 -12.140625 C 16.5625 -11.941406 16.507812 -11.765625 16.40625 -11.609375 C 16.300781 -11.453125 16.160156 -11.375 15.984375 -11.375 L 8.96875 -11.375 L 8.96875 -4.0625 C 9.019531 -3.519531 9.082031 -3.085938 9.15625 -2.765625 C 9.238281 -2.441406 9.472656 -2.148438 9.859375 -1.890625 C 10.253906 -1.640625 10.863281 -1.523438 11.6875 -1.546875 L 15.25 -1.546875 C 16.144531 -1.578125 16.820312 -1.726562 17.28125 -2 C 17.75 -2.269531 18.117188 -2.6875 18.390625 -3.25 C 18.660156 -3.8125 18.988281 -4.738281 19.375 -6.03125 C 19.5625 -6.5 20.003906 -6.679688 20.703125 -6.578125 C 20.953125 -6.523438 21.175781 -6.421875 21.375 -6.265625 C 21.570312 -6.109375 21.65625 -5.914062 21.625 -5.6875 L 20.859375 -0.8125 C 20.773438 -0.476562 20.65625 -0.257812 20.5 -0.15625 C 20.34375 -0.0507812 20.085938 0 19.734375 0 L 6.96875 0 C 5.570312 0 4.023438 0.0351562 2.328125 0.109375 Z M 2.328125 0.109375 "/>
      </g>
    </g>
  </g>
  <g fill="#c9ab76" fill-opacity="1" transform="matrix(1.088135004043579, 0, 0, 1.088135004043579, 9.186202049255371, 99.05467224121095)" style="">
    <g transform="translate(183.840957, 277.827007)">
      <g>
        <path d="M 13.84375 0.78125 C 11.65625 0.78125 9.648438 0.257812 7.828125 -0.78125 C 6.015625 -1.832031 4.570312 -3.320312 3.5 -5.25 C 2.425781 -7.1875 1.890625 -9.445312 1.890625 -12.03125 C 1.890625 -14.632812 2.40625 -16.925781 3.4375 -18.90625 C 4.46875 -20.894531 5.9375 -22.4375 7.84375 -23.53125 C 9.757812 -24.632812 11.992188 -25.1875 14.546875 -25.1875 C 16.765625 -25.1875 18.738281 -24.738281 20.46875 -23.84375 C 22.195312 -22.957031 23.0625 -21.585938 23.0625 -19.734375 C 23.082031 -18.566406 22.734375 -17.578125 22.015625 -16.765625 C 21.296875 -15.953125 20.328125 -15.546875 19.109375 -15.546875 C 18.648438 -15.546875 18.257812 -15.628906 17.9375 -15.796875 C 17.613281 -15.972656 17.375 -16.175781 17.21875 -16.40625 C 17.0625 -16.632812 16.992188 -16.8125 17.015625 -16.9375 C 17.015625 -16.988281 17.195312 -17.128906 17.5625 -17.359375 C 17.925781 -17.597656 18.25 -17.921875 18.53125 -18.328125 C 18.8125 -18.742188 18.953125 -19.25 18.953125 -19.84375 C 18.953125 -21.007812 18.554688 -21.929688 17.765625 -22.609375 C 16.984375 -23.296875 15.894531 -23.640625 14.5 -23.640625 C 12.925781 -23.640625 11.523438 -23.191406 10.296875 -22.296875 C 9.078125 -21.410156 8.125 -20.109375 7.4375 -18.390625 C 6.757812 -16.679688 6.421875 -14.640625 6.421875 -12.265625 C 6.421875 -10.203125 6.785156 -8.320312 7.515625 -6.625 C 8.253906 -4.9375 9.296875 -3.597656 10.640625 -2.609375 C 11.984375 -1.617188 13.519531 -1.125 15.25 -1.125 C 16.632812 -1.125 17.820312 -1.410156 18.8125 -1.984375 C 19.8125 -2.566406 20.710938 -3.503906 21.515625 -4.796875 C 21.640625 -5.023438 21.816406 -5.140625 22.046875 -5.140625 C 22.253906 -5.140625 22.488281 -5.0625 22.75 -4.90625 C 23.164062 -4.625 23.375 -4.34375 23.375 -4.0625 C 23.375 -3.90625 23.320312 -3.773438 23.21875 -3.671875 C 22.238281 -2.429688 21.316406 -1.492188 20.453125 -0.859375 C 19.585938 -0.234375 18.648438 0.191406 17.640625 0.421875 C 16.628906 0.660156 15.363281 0.78125 13.84375 0.78125 Z M 13.84375 0.78125 "/>
      </g>
    </g>
  </g>
  <g fill="#c9ab76" fill-opacity="1" transform="matrix(1.088135004043579, 0, 0, 1.088135004043579, 9.186202049255371, 99.05467224121095)" style="">
    <g transform="translate(208.558469, 277.827007)">
      <g>
        <path d="M 2.359375 0.109375 C 2.128906 0.109375 1.953125 0.0234375 1.828125 -0.140625 C 1.710938 -0.304688 1.65625 -0.503906 1.65625 -0.734375 C 1.6875 -1.117188 1.765625 -1.347656 1.890625 -1.421875 C 2.023438 -1.503906 2.269531 -1.546875 2.625 -1.546875 C 3.375 -1.546875 3.925781 -1.679688 4.28125 -1.953125 C 4.644531 -2.222656 4.875 -2.554688 4.96875 -2.953125 C 5.0625 -3.359375 5.117188 -3.882812 5.140625 -4.53125 L 5.140625 -19.890625 C 5.117188 -20.535156 5.0625 -21.054688 4.96875 -21.453125 C 4.875 -21.847656 4.644531 -22.179688 4.28125 -22.453125 C 3.925781 -22.722656 3.375 -22.859375 2.625 -22.859375 L 2.40625 -22.859375 C 2.144531 -22.859375 1.960938 -22.90625 1.859375 -23 C 1.753906 -23.09375 1.6875 -23.316406 1.65625 -23.671875 C 1.65625 -23.910156 1.710938 -24.113281 1.828125 -24.28125 C 1.953125 -24.445312 2.128906 -24.53125 2.359375 -24.53125 C 4.035156 -24.445312 5.554688 -24.40625 6.921875 -24.40625 C 8.472656 -24.40625 10.085938 -24.445312 11.765625 -24.53125 C 11.992188 -24.53125 12.164062 -24.445312 12.28125 -24.28125 C 12.394531 -24.113281 12.453125 -23.910156 12.453125 -23.671875 C 12.429688 -23.285156 12.351562 -23.050781 12.21875 -22.96875 C 12.09375 -22.894531 11.847656 -22.859375 11.484375 -22.859375 C 10.742188 -22.859375 10.191406 -22.722656 9.828125 -22.453125 C 9.460938 -22.179688 9.234375 -21.847656 9.140625 -21.453125 C 9.054688 -21.054688 9 -20.535156 8.96875 -19.890625 L 8.96875 -13.03125 L 21.125 -13.03125 L 21.125 -19.890625 C 21.09375 -20.535156 21.03125 -21.054688 20.9375 -21.453125 C 20.851562 -21.847656 20.628906 -22.179688 20.265625 -22.453125 C 19.910156 -22.722656 19.359375 -22.859375 18.609375 -22.859375 L 18.375 -22.859375 C 18.113281 -22.859375 17.925781 -22.90625 17.8125 -23 C 17.695312 -23.09375 17.628906 -23.316406 17.609375 -23.671875 C 17.609375 -23.910156 17.671875 -24.113281 17.796875 -24.28125 C 17.921875 -24.445312 18.085938 -24.53125 18.296875 -24.53125 C 19.972656 -24.445312 21.585938 -24.40625 23.140625 -24.40625 C 24.554688 -24.40625 26.085938 -24.445312 27.734375 -24.53125 C 27.972656 -24.53125 28.148438 -24.445312 28.265625 -24.28125 C 28.378906 -24.113281 28.4375 -23.910156 28.4375 -23.671875 C 28.40625 -23.285156 28.316406 -23.050781 28.171875 -22.96875 C 28.035156 -22.894531 27.800781 -22.859375 27.46875 -22.859375 C 26.71875 -22.859375 26.15625 -22.722656 25.78125 -22.453125 C 25.40625 -22.179688 25.171875 -21.847656 25.078125 -21.453125 C 24.992188 -21.054688 24.941406 -20.535156 24.921875 -19.890625 L 24.921875 -4.53125 C 24.941406 -3.882812 24.992188 -3.359375 25.078125 -2.953125 C 25.171875 -2.554688 25.40625 -2.222656 25.78125 -1.953125 C 26.15625 -1.679688 26.71875 -1.546875 27.46875 -1.546875 L 27.703125 -1.546875 C 27.929688 -1.546875 28.101562 -1.5 28.21875 -1.40625 C 28.332031 -1.320312 28.40625 -1.097656 28.4375 -0.734375 C 28.4375 -0.503906 28.378906 -0.304688 28.265625 -0.140625 C 28.148438 0.0234375 27.972656 0.109375 27.734375 0.109375 C 26.085938 0.0351562 24.539062 0 23.09375 0 C 21.570312 0 19.972656 0.0351562 18.296875 0.109375 C 18.085938 0.109375 17.921875 0.0234375 17.796875 -0.140625 C 17.671875 -0.304688 17.609375 -0.503906 17.609375 -0.734375 C 17.628906 -1.117188 17.707031 -1.347656 17.84375 -1.421875 C 17.988281 -1.503906 18.242188 -1.546875 18.609375 -1.546875 C 19.359375 -1.546875 19.910156 -1.679688 20.265625 -1.953125 C 20.628906 -2.222656 20.851562 -2.554688 20.9375 -2.953125 C 21.03125 -3.359375 21.09375 -3.882812 21.125 -4.53125 L 21.125 -11.375 L 8.96875 -11.375 L 8.96875 -4.53125 C 9 -3.882812 9.054688 -3.359375 9.140625 -2.953125 C 9.234375 -2.554688 9.460938 -2.222656 9.828125 -1.953125 C 10.191406 -1.679688 10.742188 -1.546875 11.484375 -1.546875 L 11.71875 -1.546875 C 11.976562 -1.546875 12.160156 -1.5 12.265625 -1.40625 C 12.367188 -1.320312 12.429688 -1.097656 12.453125 -0.734375 C 12.453125 -0.503906 12.394531 -0.304688 12.28125 -0.140625 C 12.164062 0.0234375 11.992188 0.109375 11.765625 0.109375 C 10.109375 0.0351562 8.507812 0 6.96875 0 C 5.570312 0 4.035156 0.0351562 2.359375 0.109375 Z M 2.359375 0.109375 "/>
      </g>
    </g>
  </g>
  <g fill="#c9ab76" fill-opacity="1" transform="matrix(1.088135004043579, 0, 0, 1.088135004043579, 9.186202049255371, 99.05467224121095)" style="">
    <g transform="translate(238.614026, 277.827007)">
      <g>
        <path d="M 2.328125 0.109375 C 2.085938 0.109375 1.910156 0.0234375 1.796875 -0.140625 C 1.679688 -0.304688 1.625 -0.503906 1.625 -0.734375 C 1.644531 -1.117188 1.726562 -1.347656 1.875 -1.421875 C 2.019531 -1.503906 2.257812 -1.546875 2.59375 -1.546875 C 3.34375 -1.546875 3.894531 -1.679688 4.25 -1.953125 C 4.613281 -2.222656 4.847656 -2.550781 4.953125 -2.9375 C 5.054688 -3.320312 5.117188 -3.851562 5.140625 -4.53125 L 5.140625 -19.890625 C 5.117188 -20.554688 5.054688 -21.082031 4.953125 -21.46875 C 4.847656 -21.851562 4.613281 -22.179688 4.25 -22.453125 C 3.894531 -22.722656 3.34375 -22.859375 2.59375 -22.859375 L 2.359375 -22.859375 C 2.128906 -22.859375 1.953125 -22.90625 1.828125 -23 C 1.710938 -23.09375 1.644531 -23.316406 1.625 -23.671875 C 1.625 -23.910156 1.679688 -24.113281 1.796875 -24.28125 C 1.910156 -24.445312 2.085938 -24.53125 2.328125 -24.53125 C 3.992188 -24.445312 5.523438 -24.40625 6.921875 -24.40625 C 8.472656 -24.40625 10.085938 -24.445312 11.765625 -24.53125 C 11.992188 -24.53125 12.164062 -24.445312 12.28125 -24.28125 C 12.394531 -24.113281 12.453125 -23.910156 12.453125 -23.671875 C 12.429688 -23.285156 12.347656 -23.050781 12.203125 -22.96875 C 12.066406 -22.894531 11.816406 -22.859375 11.453125 -22.859375 C 10.703125 -22.859375 10.144531 -22.722656 9.78125 -22.453125 C 9.425781 -22.179688 9.203125 -21.847656 9.109375 -21.453125 C 9.015625 -21.054688 8.957031 -20.535156 8.9375 -19.890625 L 8.9375 -4.53125 C 8.957031 -3.882812 9.015625 -3.359375 9.109375 -2.953125 C 9.203125 -2.554688 9.425781 -2.222656 9.78125 -1.953125 C 10.144531 -1.679688 10.703125 -1.546875 11.453125 -1.546875 L 11.6875 -1.546875 C 11.945312 -1.546875 12.132812 -1.5 12.25 -1.40625 C 12.363281 -1.320312 12.429688 -1.097656 12.453125 -0.734375 C 12.453125 -0.503906 12.394531 -0.304688 12.28125 -0.140625 C 12.164062 0.0234375 11.992188 0.109375 11.765625 0.109375 C 10.109375 0.0351562 8.507812 0 6.96875 0 C 5.539062 0 3.992188 0.0351562 2.328125 0.109375 Z M 2.328125 0.109375 "/>
      </g>
    </g>
  </g>
  <g fill="#c9ab76" fill-opacity="1" transform="matrix(1.088135004043579, 0, 0, 1.088135004043579, 9.186202049255371, 99.05467224121095)" style="">
    <g transform="translate(252.694108, 277.827007)">
      <g>
        <path d="M 26.921875 7.734375 C 25.867188 7.734375 24.925781 7.59375 24.09375 7.3125 C 23.269531 7.03125 22.546875 6.675781 21.921875 6.25 C 21.304688 5.820312 20.507812 5.222656 19.53125 4.453125 C 18.757812 3.804688 18.070312 3.265625 17.46875 2.828125 C 16.863281 2.390625 16.210938 1.988281 15.515625 1.625 C 14.691406 1.207031 13.710938 0.875 12.578125 0.625 C 9.867188 0 7.894531 -0.785156 6.65625 -1.734375 C 5.132812 -2.921875 3.953125 -4.40625 3.109375 -6.1875 C 2.273438 -7.96875 1.859375 -9.863281 1.859375 -11.875 C 1.859375 -14.582031 2.46875 -16.941406 3.6875 -18.953125 C 4.914062 -20.960938 6.484375 -22.503906 8.390625 -23.578125 C 10.304688 -24.648438 12.242188 -25.1875 14.203125 -25.1875 C 16.671875 -25.1875 18.859375 -24.597656 20.765625 -23.421875 C 22.679688 -22.253906 24.144531 -20.707031 25.15625 -18.78125 C 26.175781 -16.863281 26.6875 -14.796875 26.6875 -12.578125 C 26.6875 -9.679688 25.957031 -7.15625 24.5 -5 C 23.050781 -2.851562 21.125 -1.300781 18.71875 -0.34375 C 18.3125 -0.164062 17.785156 -0.0625 17.140625 -0.03125 L 17.140625 0.03125 C 17.835938 0.113281 18.46875 0.296875 19.03125 0.578125 C 20.039062 1.066406 21.394531 1.929688 23.09375 3.171875 C 24.351562 4.078125 25.367188 4.738281 26.140625 5.15625 C 26.921875 5.582031 27.6875 5.796875 28.4375 5.796875 C 28.894531 5.742188 29.234375 5.59375 29.453125 5.34375 C 29.679688 5.101562 29.796875 4.804688 29.796875 4.453125 C 29.796875 3.828125 29.554688 3.25 29.078125 2.71875 C 28.597656 2.195312 27.984375 1.921875 27.234375 1.890625 C 27.160156 1.484375 27.316406 1.082031 27.703125 0.6875 C 28.085938 0.300781 28.664062 0.109375 29.4375 0.109375 C 29.769531 0.109375 30.148438 0.222656 30.578125 0.453125 C 31.003906 0.691406 31.378906 1.039062 31.703125 1.5 C 32.023438 1.96875 32.1875 2.539062 32.1875 3.21875 C 32.1875 3.988281 31.921875 4.710938 31.390625 5.390625 C 30.867188 6.078125 30.203125 6.632812 29.390625 7.0625 C 28.578125 7.488281 27.753906 7.710938 26.921875 7.734375 Z M 14.15625 -0.8125 C 15.914062 -0.8125 17.382812 -1.347656 18.5625 -2.421875 C 19.75 -3.492188 20.632812 -4.914062 21.21875 -6.6875 C 21.800781 -8.46875 22.09375 -10.429688 22.09375 -12.578125 C 22.09375 -14.554688 21.796875 -16.378906 21.203125 -18.046875 C 20.609375 -19.710938 19.710938 -21.039062 18.515625 -22.03125 C 17.316406 -23.019531 15.863281 -23.515625 14.15625 -23.515625 C 11.582031 -23.515625 9.648438 -22.425781 8.359375 -20.25 C 7.066406 -18.070312 6.421875 -15.320312 6.421875 -12 C 6.421875 -9.976562 6.707031 -8.117188 7.28125 -6.421875 C 7.863281 -4.722656 8.734375 -3.363281 9.890625 -2.34375 C 11.054688 -1.320312 12.476562 -0.8125 14.15625 -0.8125 Z M 14.15625 -0.8125 "/>
      </g>
    </g>
  </g>
  <g fill="#c9ab76" fill-opacity="1" transform="matrix(1.088135004043579, 0, 0, 1.088135004043579, 9.186202049255371, 99.05467224121095)" style="">
    <g transform="translate(281.202402, 277.827007)">
      <g>
        <path d="M 13.890625 0.78125 C 11.898438 0.78125 10.203125 0.429688 8.796875 -0.265625 C 7.390625 -0.960938 6.328125 -1.878906 5.609375 -3.015625 C 4.890625 -4.148438 4.53125 -5.375 4.53125 -6.6875 L 4.53125 -19.890625 C 4.5 -20.535156 4.4375 -21.054688 4.34375 -21.453125 C 4.257812 -21.847656 4.035156 -22.179688 3.671875 -22.453125 C 3.316406 -22.722656 2.765625 -22.859375 2.015625 -22.859375 L 1.78125 -22.859375 C 1.519531 -22.859375 1.335938 -22.90625 1.234375 -23 C 1.128906 -23.09375 1.066406 -23.316406 1.046875 -23.671875 C 1.046875 -23.910156 1.101562 -24.113281 1.21875 -24.28125 C 1.332031 -24.445312 1.503906 -24.53125 1.734375 -24.53125 C 3.390625 -24.445312 4.914062 -24.40625 6.3125 -24.40625 C 7.882812 -24.40625 9.492188 -24.445312 11.140625 -24.53125 C 11.367188 -24.53125 11.539062 -24.445312 11.65625 -24.28125 C 11.78125 -24.113281 11.84375 -23.910156 11.84375 -23.671875 C 11.8125 -23.316406 11.738281 -23.09375 11.625 -23 C 11.507812 -22.90625 11.320312 -22.859375 11.0625 -22.859375 C 10.238281 -22.859375 9.632812 -22.726562 9.25 -22.46875 C 8.863281 -22.21875 8.625 -21.898438 8.53125 -21.515625 C 8.4375 -21.128906 8.378906 -20.585938 8.359375 -19.890625 L 8.359375 -7.8125 C 8.359375 -6.03125 8.773438 -4.535156 9.609375 -3.328125 C 10.453125 -2.117188 12.082031 -1.515625 14.5 -1.515625 C 16.875 -1.515625 18.554688 -2.0625 19.546875 -3.15625 C 20.546875 -4.25 21.046875 -5.617188 21.046875 -7.265625 L 21.046875 -17.453125 C 21.046875 -19.203125 20.976562 -20.4375 20.84375 -21.15625 C 20.71875 -21.882812 20.460938 -22.347656 20.078125 -22.546875 C 19.691406 -22.753906 19.019531 -22.859375 18.0625 -22.859375 L 17.828125 -22.859375 C 17.597656 -22.859375 17.425781 -22.90625 17.3125 -23 C 17.195312 -23.09375 17.125 -23.316406 17.09375 -23.671875 C 17.09375 -23.910156 17.148438 -24.113281 17.265625 -24.28125 C 17.390625 -24.445312 17.566406 -24.53125 17.796875 -24.53125 C 19.472656 -24.445312 20.914062 -24.40625 22.125 -24.40625 C 23.363281 -24.40625 24.8125 -24.445312 26.46875 -24.53125 C 26.695312 -24.53125 26.867188 -24.445312 26.984375 -24.28125 C 27.097656 -24.113281 27.15625 -23.910156 27.15625 -23.671875 C 27.132812 -23.316406 27.0625 -23.09375 26.9375 -23 C 26.820312 -22.90625 26.640625 -22.859375 26.390625 -22.859375 C 25.359375 -22.859375 24.640625 -22.769531 24.234375 -22.59375 C 23.835938 -22.414062 23.566406 -21.984375 23.421875 -21.296875 C 23.285156 -20.609375 23.21875 -19.40625 23.21875 -17.6875 L 23.21875 -6.890625 C 23.21875 -5.160156 22.738281 -3.71875 21.78125 -2.5625 C 20.820312 -1.414062 19.628906 -0.570312 18.203125 -0.03125 C 16.773438 0.507812 15.335938 0.78125 13.890625 0.78125 Z M 13.890625 0.78125 "/>
      </g>
    </g>
  </g>
  <g fill="#c9ab76" fill-opacity="1" transform="matrix(1.088135004043579, 0, 0, 1.088135004043579, 9.186202049255371, 99.05467224121095)" style="">
    <g transform="translate(309.053114, 277.827007)">
      <g>
        <path d="M 2.328125 0.109375 C 2.117188 0.109375 1.953125 0.0234375 1.828125 -0.140625 C 1.710938 -0.304688 1.65625 -0.503906 1.65625 -0.734375 C 1.6875 -1.117188 1.765625 -1.347656 1.890625 -1.421875 C 2.023438 -1.503906 2.269531 -1.546875 2.625 -1.546875 C 3.375 -1.546875 3.925781 -1.679688 4.28125 -1.953125 C 4.644531 -2.222656 4.875 -2.554688 4.96875 -2.953125 C 5.0625 -3.359375 5.117188 -3.882812 5.140625 -4.53125 L 5.140625 -19.890625 C 5.117188 -20.535156 5.0625 -21.054688 4.96875 -21.453125 C 4.875 -21.847656 4.644531 -22.179688 4.28125 -22.453125 C 3.925781 -22.722656 3.375 -22.859375 2.625 -22.859375 L 2.40625 -22.859375 C 2.144531 -22.859375 1.960938 -22.90625 1.859375 -23 C 1.753906 -23.09375 1.6875 -23.316406 1.65625 -23.671875 C 1.65625 -23.910156 1.710938 -24.113281 1.828125 -24.28125 C 1.953125 -24.445312 2.117188 -24.53125 2.328125 -24.53125 C 4.023438 -24.445312 5.554688 -24.40625 6.921875 -24.40625 L 19.078125 -24.40625 C 19.742188 -24.40625 20.078125 -24.097656 20.078125 -23.484375 L 20.1875 -18.0625 C 20.1875 -17.832031 20.070312 -17.644531 19.84375 -17.5 C 19.613281 -17.363281 19.382812 -17.296875 19.15625 -17.296875 C 18.84375 -17.296875 18.566406 -17.351562 18.328125 -17.46875 C 18.097656 -17.582031 17.972656 -17.753906 17.953125 -17.984375 C 17.742188 -19.253906 17.515625 -20.21875 17.265625 -20.875 C 17.023438 -21.53125 16.664062 -22.019531 16.1875 -22.34375 C 15.707031 -22.664062 15.03125 -22.835938 14.15625 -22.859375 L 8.96875 -22.859375 L 8.96875 -13.03125 L 15.984375 -13.03125 C 16.160156 -13.007812 16.300781 -12.914062 16.40625 -12.75 C 16.507812 -12.582031 16.5625 -12.378906 16.5625 -12.140625 C 16.5625 -11.941406 16.507812 -11.765625 16.40625 -11.609375 C 16.300781 -11.453125 16.160156 -11.375 15.984375 -11.375 L 8.96875 -11.375 L 8.96875 -4.0625 C 9.019531 -3.519531 9.082031 -3.085938 9.15625 -2.765625 C 9.238281 -2.441406 9.472656 -2.148438 9.859375 -1.890625 C 10.253906 -1.640625 10.863281 -1.523438 11.6875 -1.546875 L 15.25 -1.546875 C 16.144531 -1.578125 16.820312 -1.726562 17.28125 -2 C 17.75 -2.269531 18.117188 -2.6875 18.390625 -3.25 C 18.660156 -3.8125 18.988281 -4.738281 19.375 -6.03125 C 19.5625 -6.5 20.003906 -6.679688 20.703125 -6.578125 C 20.953125 -6.523438 21.175781 -6.421875 21.375 -6.265625 C 21.570312 -6.109375 21.65625 -5.914062 21.625 -5.6875 L 20.859375 -0.8125 C 20.773438 -0.476562 20.65625 -0.257812 20.5 -0.15625 C 20.34375 -0.0507812 20.085938 0 19.734375 0 L 6.96875 0 C 5.570312 0 4.023438 0.0351562 2.328125 0.109375 Z M 2.328125 0.109375 "/>
      </g>
    </g>
  </g>
  <g fill="#c9ab76" fill-opacity="1" transform="matrix(1.088135004043579, 0, 0, 1.088135004043579, 9.186202049255371, 99.05467224121095)" style="">
    <g transform="translate(332.029962, 277.827007)">
      <g>
        <path d="M 6.921875 0.109375 C 6.691406 0.109375 6.519531 0.0234375 6.40625 -0.140625 C 6.289062 -0.304688 6.234375 -0.503906 6.234375 -0.734375 C 6.253906 -1.117188 6.328125 -1.347656 6.453125 -1.421875 C 6.585938 -1.503906 6.835938 -1.546875 7.203125 -1.546875 C 7.941406 -1.546875 8.492188 -1.679688 8.859375 -1.953125 C 9.222656 -2.222656 9.445312 -2.554688 9.53125 -2.953125 C 9.625 -3.359375 9.679688 -3.882812 9.703125 -4.53125 L 9.703125 -22.984375 L 7.046875 -22.984375 C 6.160156 -22.953125 5.476562 -22.757812 5 -22.40625 C 4.53125 -22.0625 4.171875 -21.546875 3.921875 -20.859375 C 3.679688 -20.179688 3.46875 -19.210938 3.28125 -17.953125 C 3.257812 -17.742188 3.109375 -17.570312 2.828125 -17.4375 C 2.546875 -17.3125 2.25 -17.25 1.9375 -17.25 C 1.707031 -17.25 1.492188 -17.320312 1.296875 -17.46875 C 1.097656 -17.613281 1 -17.800781 1 -18.03125 L 1.125 -23.484375 C 1.125 -24.097656 1.472656 -24.40625 2.171875 -24.40625 L 21.078125 -24.40625 C 21.753906 -24.40625 22.09375 -24.097656 22.09375 -23.484375 L 22.25 -18.03125 C 22.25 -17.800781 22.144531 -17.613281 21.9375 -17.46875 C 21.726562 -17.320312 21.507812 -17.25 21.28125 -17.25 C 20.96875 -17.25 20.675781 -17.3125 20.40625 -17.4375 C 20.132812 -17.570312 19.988281 -17.742188 19.96875 -17.953125 C 19.757812 -19.242188 19.535156 -20.222656 19.296875 -20.890625 C 19.066406 -21.554688 18.707031 -22.0625 18.21875 -22.40625 C 17.726562 -22.757812 17.046875 -22.953125 16.171875 -22.984375 L 13.546875 -22.984375 L 13.546875 -4.53125 C 13.566406 -3.882812 13.617188 -3.359375 13.703125 -2.953125 C 13.796875 -2.554688 14.023438 -2.222656 14.390625 -1.953125 C 14.753906 -1.679688 15.3125 -1.546875 16.0625 -1.546875 L 16.28125 -1.546875 C 16.519531 -1.546875 16.695312 -1.5 16.8125 -1.40625 C 16.925781 -1.320312 16.992188 -1.097656 17.015625 -0.734375 C 17.015625 -0.503906 16.957031 -0.304688 16.84375 -0.140625 C 16.726562 0.0234375 16.554688 0.109375 16.328125 0.109375 C 14.671875 0.0351562 13.148438 0 11.765625 0 C 10.210938 0 8.597656 0.0351562 6.921875 0.109375 Z M 6.921875 0.109375 "/>
      </g>
    </g>
  </g>
  <g fill="#c9ab76" fill-opacity="1" transform="matrix(1.088135004043579, 0, 0, 1.088135004043579, 9.186202049255371, 99.05467224121095)" style="">
    <g transform="translate(355.238889, 277.827007)">
      <g>
        <path d="M 6.921875 0.109375 C 6.691406 0.109375 6.519531 0.0234375 6.40625 -0.140625 C 6.289062 -0.304688 6.234375 -0.503906 6.234375 -0.734375 C 6.253906 -1.117188 6.328125 -1.347656 6.453125 -1.421875 C 6.585938 -1.503906 6.835938 -1.546875 7.203125 -1.546875 C 7.941406 -1.546875 8.492188 -1.679688 8.859375 -1.953125 C 9.222656 -2.222656 9.445312 -2.554688 9.53125 -2.953125 C 9.625 -3.359375 9.679688 -3.882812 9.703125 -4.53125 L 9.703125 -22.984375 L 7.046875 -22.984375 C 6.160156 -22.953125 5.476562 -22.757812 5 -22.40625 C 4.53125 -22.0625 4.171875 -21.546875 3.921875 -20.859375 C 3.679688 -20.179688 3.46875 -19.210938 3.28125 -17.953125 C 3.257812 -17.742188 3.109375 -17.570312 2.828125 -17.4375 C 2.546875 -17.3125 2.25 -17.25 1.9375 -17.25 C 1.707031 -17.25 1.492188 -17.320312 1.296875 -17.46875 C 1.097656 -17.613281 1 -17.800781 1 -18.03125 L 1.125 -23.484375 C 1.125 -24.097656 1.472656 -24.40625 2.171875 -24.40625 L 21.078125 -24.40625 C 21.753906 -24.40625 22.09375 -24.097656 22.09375 -23.484375 L 22.25 -18.03125 C 22.25 -17.800781 22.144531 -17.613281 21.9375 -17.46875 C 21.726562 -17.320312 21.507812 -17.25 21.28125 -17.25 C 20.96875 -17.25 20.675781 -17.3125 20.40625 -17.4375 C 20.132812 -17.570312 19.988281 -17.742188 19.96875 -17.953125 C 19.757812 -19.242188 19.535156 -20.222656 19.296875 -20.890625 C 19.066406 -21.554688 18.707031 -22.0625 18.21875 -22.40625 C 17.726562 -22.757812 17.046875 -22.953125 16.171875 -22.984375 L 13.546875 -22.984375 L 13.546875 -4.53125 C 13.566406 -3.882812 13.617188 -3.359375 13.703125 -2.953125 C 13.796875 -2.554688 14.023438 -2.222656 14.390625 -1.953125 C 14.753906 -1.679688 15.3125 -1.546875 16.0625 -1.546875 L 16.28125 -1.546875 C 16.519531 -1.546875 16.695312 -1.5 16.8125 -1.40625 C 16.925781 -1.320312 16.992188 -1.097656 17.015625 -0.734375 C 17.015625 -0.503906 16.957031 -0.304688 16.84375 -0.140625 C 16.726562 0.0234375 16.554688 0.109375 16.328125 0.109375 C 14.671875 0.0351562 13.148438 0 11.765625 0 C 10.210938 0 8.597656 0.0351562 6.921875 0.109375 Z M 6.921875 0.109375 "/>
      </g>
    </g>
  </g>
  <g fill="#c9ab76" fill-opacity="1" transform="matrix(1.088135004043579, 0, 0, 1.088135004043579, 9.186202049255371, 99.05467224121095)" style="">
    <g transform="translate(378.447816, 277.827007)">
      <g>
        <path d="M 2.328125 0.109375 C 2.085938 0.109375 1.910156 0.0234375 1.796875 -0.140625 C 1.679688 -0.304688 1.625 -0.503906 1.625 -0.734375 C 1.644531 -1.117188 1.726562 -1.347656 1.875 -1.421875 C 2.019531 -1.503906 2.257812 -1.546875 2.59375 -1.546875 C 3.34375 -1.546875 3.894531 -1.679688 4.25 -1.953125 C 4.613281 -2.222656 4.847656 -2.550781 4.953125 -2.9375 C 5.054688 -3.320312 5.117188 -3.851562 5.140625 -4.53125 L 5.140625 -19.890625 C 5.117188 -20.554688 5.054688 -21.082031 4.953125 -21.46875 C 4.847656 -21.851562 4.613281 -22.179688 4.25 -22.453125 C 3.894531 -22.722656 3.34375 -22.859375 2.59375 -22.859375 L 2.359375 -22.859375 C 2.128906 -22.859375 1.953125 -22.90625 1.828125 -23 C 1.710938 -23.09375 1.644531 -23.316406 1.625 -23.671875 C 1.625 -23.910156 1.679688 -24.113281 1.796875 -24.28125 C 1.910156 -24.445312 2.085938 -24.53125 2.328125 -24.53125 C 3.992188 -24.445312 5.523438 -24.40625 6.921875 -24.40625 C 8.472656 -24.40625 10.085938 -24.445312 11.765625 -24.53125 C 11.992188 -24.53125 12.164062 -24.445312 12.28125 -24.28125 C 12.394531 -24.113281 12.453125 -23.910156 12.453125 -23.671875 C 12.429688 -23.285156 12.347656 -23.050781 12.203125 -22.96875 C 12.066406 -22.894531 11.816406 -22.859375 11.453125 -22.859375 C 10.703125 -22.859375 10.144531 -22.722656 9.78125 -22.453125 C 9.425781 -22.179688 9.203125 -21.847656 9.109375 -21.453125 C 9.015625 -21.054688 8.957031 -20.535156 8.9375 -19.890625 L 8.9375 -4.53125 C 8.957031 -3.882812 9.015625 -3.359375 9.109375 -2.953125 C 9.203125 -2.554688 9.425781 -2.222656 9.78125 -1.953125 C 10.144531 -1.679688 10.703125 -1.546875 11.453125 -1.546875 L 11.6875 -1.546875 C 11.945312 -1.546875 12.132812 -1.5 12.25 -1.40625 C 12.363281 -1.320312 12.429688 -1.097656 12.453125 -0.734375 C 12.453125 -0.503906 12.394531 -0.304688 12.28125 -0.140625 C 12.164062 0.0234375 11.992188 0.109375 11.765625 0.109375 C 10.109375 0.0351562 8.507812 0 6.96875 0 C 5.539062 0 3.992188 0.0351562 2.328125 0.109375 Z M 2.328125 0.109375 "/>
      </g>
    </g>
  </g>
  <g fill="#c9ab76" fill-opacity="1" transform="matrix(1.088135004043579, 0, 0, 1.088135004043579, 9.186202049255371, 99.05467224121095)" style="">
    <g transform="translate(37.90854, 249.811598)">
      <g>
        <path d="M 1.359375 0.0625 C 1.234375 0.0625 1.132812 0.015625 1.0625 -0.078125 C 1 -0.171875 0.96875 -0.285156 0.96875 -0.421875 C 0.988281 -0.648438 1.035156 -0.785156 1.109375 -0.828125 C 1.179688 -0.878906 1.320312 -0.90625 1.53125 -0.90625 C 1.96875 -0.90625 2.289062 -0.984375 2.5 -1.140625 C 2.71875 -1.296875 2.851562 -1.488281 2.90625 -1.71875 C 2.957031 -1.957031 2.988281 -2.265625 3 -2.640625 L 3 -11.59375 C 2.988281 -11.96875 2.957031 -12.269531 2.90625 -12.5 C 2.851562 -12.738281 2.71875 -12.9375 2.5 -13.09375 C 2.289062 -13.25 1.96875 -13.328125 1.53125 -13.328125 L 1.40625 -13.328125 C 1.25 -13.328125 1.140625 -13.351562 1.078125 -13.40625 C 1.023438 -13.46875 0.988281 -13.601562 0.96875 -13.8125 C 0.96875 -13.945312 1 -14.0625 1.0625 -14.15625 C 1.132812 -14.25 1.234375 -14.296875 1.359375 -14.296875 C 2.347656 -14.253906 3.238281 -14.234375 4.03125 -14.234375 L 7.5625 -14.234375 C 9 -14.234375 10.304688 -13.941406 11.484375 -13.359375 C 12.671875 -12.785156 13.601562 -11.957031 14.28125 -10.875 C 14.96875 -9.789062 15.3125 -8.515625 15.3125 -7.046875 C 15.3125 -5.503906 14.925781 -4.203125 14.15625 -3.140625 C 13.382812 -2.085938 12.375 -1.300781 11.125 -0.78125 C 9.882812 -0.257812 8.5625 0 7.15625 0 L 4.03125 0 C 3.238281 0 2.347656 0.0195312 1.359375 0.0625 Z M 7.484375 -0.828125 C 9.242188 -0.828125 10.535156 -1.375 11.359375 -2.46875 C 12.179688 -3.5625 12.59375 -5.085938 12.59375 -7.046875 C 12.59375 -8.273438 12.367188 -9.375 11.921875 -10.34375 C 11.484375 -11.3125 10.84375 -12.066406 10 -12.609375 C 9.15625 -13.148438 8.15625 -13.421875 7 -13.421875 L 5.234375 -13.40625 L 5.234375 -2.375 C 5.234375 -1.78125 5.410156 -1.375 5.765625 -1.15625 C 6.117188 -0.9375 6.691406 -0.828125 7.484375 -0.828125 Z M 7.484375 -0.828125 "/>
      </g>
    </g>
  </g>
  <g fill="#c9ab76" fill-opacity="1" transform="matrix(1.088135004043579, 0, 0, 1.088135004043579, 9.186202049255371, 99.05467224121095)" style="">
    <g transform="translate(54.334773, 249.811598)">
      <g>
        <path d="M 1.375 0.0625 C 1.238281 0.0625 1.132812 0.015625 1.0625 -0.078125 C 1 -0.171875 0.96875 -0.285156 0.96875 -0.421875 C 0.988281 -0.648438 1.035156 -0.785156 1.109375 -0.828125 C 1.179688 -0.878906 1.320312 -0.90625 1.53125 -0.90625 C 1.96875 -0.90625 2.289062 -0.984375 2.5 -1.140625 C 2.71875 -1.296875 2.851562 -1.488281 2.90625 -1.71875 C 2.957031 -1.957031 2.988281 -2.265625 3 -2.640625 L 3 -11.578125 C 2.988281 -11.960938 2.957031 -12.269531 2.90625 -12.5 C 2.851562 -12.726562 2.71875 -12.921875 2.5 -13.078125 C 2.289062 -13.242188 1.96875 -13.328125 1.53125 -13.328125 L 1.40625 -13.328125 C 1.25 -13.328125 1.140625 -13.351562 1.078125 -13.40625 C 1.023438 -13.46875 0.988281 -13.601562 0.96875 -13.8125 C 0.96875 -13.945312 1 -14.0625 1.0625 -14.15625 C 1.132812 -14.25 1.238281 -14.296875 1.375 -14.296875 C 2.351562 -14.253906 3.25 -14.234375 4.0625 -14.234375 L 7.9375 -14.234375 C 9.09375 -14.222656 10.054688 -14.039062 10.828125 -13.6875 C 11.609375 -13.332031 12.179688 -12.878906 12.546875 -12.328125 C 12.910156 -11.773438 13.09375 -11.1875 13.09375 -10.5625 C 13.09375 -9.726562 12.765625 -8.96875 12.109375 -8.28125 C 11.453125 -7.59375 10.5625 -7.097656 9.4375 -6.796875 L 9.8125 -6.1875 C 10.445312 -5.15625 11.019531 -4.273438 11.53125 -3.546875 C 12.039062 -2.816406 12.597656 -2.140625 13.203125 -1.515625 C 13.617188 -1.171875 14.066406 -0.96875 14.546875 -0.90625 C 14.578125 -0.90625 14.644531 -0.898438 14.75 -0.890625 C 14.851562 -0.878906 14.9375 -0.835938 15 -0.765625 C 15.070312 -0.691406 15.109375 -0.578125 15.109375 -0.421875 C 15.109375 -0.285156 15.070312 -0.171875 15 -0.078125 C 14.9375 0.015625 14.835938 0.0625 14.703125 0.0625 L 14.125 0.046875 C 13.457031 0.015625 12.976562 0 12.6875 0 C 12.082031 -0.125 11.5625 -0.335938 11.125 -0.640625 C 10.695312 -0.953125 10.273438 -1.394531 9.859375 -1.96875 C 9.421875 -2.539062 8.8125 -3.472656 8.03125 -4.765625 L 7.625 -5.421875 C 7.394531 -5.765625 7.175781 -6 6.96875 -6.125 C 6.757812 -6.25 6.398438 -6.3125 5.890625 -6.3125 L 5.234375 -6.3125 L 5.234375 -2.640625 C 5.242188 -2.265625 5.273438 -1.957031 5.328125 -1.71875 C 5.390625 -1.488281 5.523438 -1.296875 5.734375 -1.140625 C 5.941406 -0.984375 6.265625 -0.90625 6.703125 -0.90625 L 6.84375 -0.90625 C 6.976562 -0.90625 7.078125 -0.878906 7.140625 -0.828125 C 7.210938 -0.773438 7.253906 -0.640625 7.265625 -0.421875 C 7.265625 -0.285156 7.226562 -0.171875 7.15625 -0.078125 C 7.09375 0.015625 6.992188 0.0625 6.859375 0.0625 C 5.898438 0.0195312 4.957031 0 4.03125 0 C 3.238281 0 2.351562 0.0195312 1.375 0.0625 Z M 7.21875 -7.203125 C 9.457031 -7.203125 10.578125 -8.253906 10.578125 -10.359375 C 10.578125 -11.210938 10.285156 -11.929688 9.703125 -12.515625 C 9.117188 -13.109375 8.15625 -13.40625 6.8125 -13.40625 C 6.375 -13.40625 6.039062 -13.351562 5.8125 -13.25 C 5.59375 -13.144531 5.441406 -12.960938 5.359375 -12.703125 C 5.273438 -12.441406 5.234375 -12.050781 5.234375 -11.53125 L 5.234375 -7.203125 Z M 7.21875 -7.203125 "/>
      </g>
    </g>
  </g>
  <g fill="#c9ab76" fill-opacity="1" transform="matrix(1.088135004043579, 0, 0, 1.088135004043579, 9.186202049255371, 99.05467224121095)" style="">
    <g transform="translate(69.474888, 249.811598)">
      <g>
        <path d="M 0.140625 0.0625 C 0.00390625 0.0625 -0.09375 0.015625 -0.15625 -0.078125 C -0.226562 -0.171875 -0.265625 -0.285156 -0.265625 -0.421875 C -0.253906 -0.648438 -0.207031 -0.785156 -0.125 -0.828125 C -0.0507812 -0.878906 0.0351562 -0.90625 0.140625 -0.90625 C 0.242188 -0.90625 0.3125 -0.90625 0.34375 -0.90625 C 0.789062 -0.90625 1.117188 -1.019531 1.328125 -1.25 C 1.535156 -1.488281 1.703125 -1.753906 1.828125 -2.046875 C 1.960938 -2.335938 2.050781 -2.535156 2.09375 -2.640625 L 6.046875 -11.984375 C 6.140625 -12.203125 6.1875 -12.378906 6.1875 -12.515625 C 6.1875 -12.785156 6.078125 -12.984375 5.859375 -13.109375 C 5.648438 -13.234375 5.359375 -13.332031 4.984375 -13.40625 C 4.734375 -13.445312 4.578125 -13.488281 4.515625 -13.53125 C 4.453125 -13.582031 4.421875 -13.710938 4.421875 -13.921875 C 4.421875 -14.097656 4.46875 -14.21875 4.5625 -14.28125 C 4.664062 -14.34375 4.820312 -14.375 5.03125 -14.375 C 5.78125 -14.375 6.375 -14.316406 6.8125 -14.203125 C 7.257812 -14.085938 7.648438 -13.859375 7.984375 -13.515625 C 8.316406 -13.179688 8.625 -12.671875 8.90625 -11.984375 L 12.703125 -2.640625 C 12.929688 -2.066406 13.148438 -1.632812 13.359375 -1.34375 C 13.566406 -1.0625 13.878906 -0.914062 14.296875 -0.90625 L 14.4375 -0.90625 C 14.59375 -0.90625 14.695312 -0.878906 14.75 -0.828125 C 14.8125 -0.773438 14.851562 -0.640625 14.875 -0.421875 C 14.875 -0.285156 14.835938 -0.171875 14.765625 -0.078125 C 14.703125 0.015625 14.601562 0.0625 14.46875 0.0625 C 13.5 0.0195312 12.671875 0 11.984375 0 C 11.078125 0 10.144531 0.0195312 9.1875 0.0625 C 9.050781 0.0625 8.945312 0.015625 8.875 -0.078125 C 8.8125 -0.171875 8.78125 -0.285156 8.78125 -0.421875 C 8.789062 -0.640625 8.828125 -0.773438 8.890625 -0.828125 C 8.953125 -0.878906 9.054688 -0.90625 9.203125 -0.90625 C 9.710938 -0.90625 10.070312 -0.953125 10.28125 -1.046875 C 10.5 -1.148438 10.609375 -1.328125 10.609375 -1.578125 C 10.609375 -1.773438 10.515625 -2.128906 10.328125 -2.640625 L 9.5625 -4.515625 L 4 -4.515625 C 3.613281 -3.578125 3.394531 -3.03125 3.34375 -2.875 C 3.289062 -2.726562 3.265625 -2.648438 3.265625 -2.640625 C 3.085938 -2.066406 3 -1.695312 3 -1.53125 C 3 -1.28125 3.109375 -1.113281 3.328125 -1.03125 C 3.554688 -0.945312 3.988281 -0.90625 4.625 -0.90625 L 4.765625 -0.90625 C 4.910156 -0.90625 5.015625 -0.878906 5.078125 -0.828125 C 5.140625 -0.773438 5.175781 -0.640625 5.1875 -0.421875 C 5.1875 -0.285156 5.148438 -0.171875 5.078125 -0.078125 C 5.015625 0.015625 4.914062 0.0625 4.78125 0.0625 C 3.820312 0.0195312 3.003906 0 2.328125 0 C 1.847656 0 1.117188 0.0195312 0.140625 0.0625 Z M 4.421875 -5.484375 L 9.15625 -5.484375 L 6.875 -11.28125 L 6.8125 -11.28125 Z M 4.421875 -5.484375 "/>
      </g>
    </g>
  </g>
  <g fill="#c9ab76" fill-opacity="1" transform="matrix(1.088135004043579, 0, 0, 1.088135004043579, 9.186202049255371, 99.05467224121095)" style="">
    <g transform="translate(84.208855, 249.811598)">
      <g>
        <path d="M 2.484375 0.265625 C 2.078125 0.265625 1.738281 0.132812 1.46875 -0.125 C 1.195312 -0.382812 1.0625 -0.726562 1.0625 -1.15625 C 1.0625 -1.539062 1.195312 -1.867188 1.46875 -2.140625 C 1.738281 -2.410156 2.082031 -2.546875 2.5 -2.546875 C 2.90625 -2.546875 3.25 -2.410156 3.53125 -2.140625 C 3.8125 -1.867188 3.953125 -1.539062 3.953125 -1.15625 C 3.953125 -0.726562 3.8125 -0.382812 3.53125 -0.125 C 3.25 0.132812 2.898438 0.265625 2.484375 0.265625 Z M 2.484375 0.265625 "/>
      </g>
    </g>
  </g>
</svg>