<svg xmlns="http://www.w3.org/2000/svg" xmlns:xlink="http://www.w3.org/1999/xlink" width="554" zoomAndPan="magnify" viewBox="0 0 415.5 133.500001" height="178" preserveAspectRatio="xMidYMid meet" version="1.0"><defs><g/><clipPath id="fe2585881d"><path d="M 0.527344 8.953125 L 137.265625 8.953125 L 137.265625 132.242188 L 0.527344 132.242188 Z M 0.527344 8.953125 " clip-rule="nonzero"/></clipPath><clipPath id="6ebc9fbd24"><path d="M 0.527344 44 L 94 44 L 94 132 L 0.527344 132 Z M 0.527344 44 " clip-rule="nonzero"/></clipPath></defs><g clip-path="url(#fe2585881d)"><path fill="#ffbd59" d="M 137.316406 131.519531 C 121.695312 134.890625 110.535156 129.417969 103.070312 115.824219 C 101.410156 112.804688 98.574219 110.453125 96.632812 107.554688 C 91.539062 99.96875 85.90625 93.628906 74.617188 95.710938 C 87.789062 79.261719 100.957031 62.808594 114.460938 45.941406 C 109.921875 40.226562 105.742188 34.296875 100.800781 29.097656 C 99.117188 27.332031 95.511719 26.75 92.777344 26.726562 C 70.023438 26.546875 47.257812 26.257812 24.515625 26.835938 C 17.113281 27.027344 12.222656 24.855469 8.394531 18.847656 C 6.4375 15.773438 3.894531 13.078125 0.722656 9.089844 C 4.144531 9.089844 6.261719 9.089844 8.378906 9.089844 C 39.386719 9.085938 70.394531 9.191406 101.402344 8.953125 C 106.167969 8.917969 109.191406 10.285156 112.078125 14.066406 C 120.238281 24.769531 128.832031 35.140625 137.429688 45.859375 C 126.101562 60.039062 115.058594 73.855469 103.929688 87.78125 C 115.347656 102.410156 126.515625 116.722656 137.316406 131.519531 Z M 137.316406 131.519531 " fill-opacity="1" fill-rule="nonzero"/></g><g clip-path="url(#6ebc9fbd24)"><path fill="#ffbd59" d="M 53.601562 65.789062 C 56.867188 61.699219 54.105469 61.910156 51.671875 61.910156 C 42.675781 61.90625 33.632812 61.347656 24.699219 62.082031 C 17.332031 62.683594 12.386719 60.296875 8.601562 54.1875 C 6.648438 51.027344 4.035156 48.273438 1.171875 44.648438 C 31.691406 44.648438 61.5625 44.648438 93.414062 44.648438 C 74.511719 68.277344 56.574219 90.691406 37.671875 114.320312 C 49.625 114.320312 60.238281 114.722656 70.796875 114.171875 C 77.457031 113.828125 82.210938 115.5625 85.699219 121.371094 C 87.71875 124.730469 90.53125 127.617188 93.601562 131.488281 C 62.417969 131.488281 32.195312 131.488281 0.867188 131.488281 C 18.679688 109.3125 35.960938 87.792969 53.601562 65.789062 Z M 53.601562 65.789062 " fill-opacity="1" fill-rule="nonzero"/></g><g fill="#ffbd59" fill-opacity="1"><g transform="translate(159.359901, 72.64909)"><g><path d="M 44.40625 -48.65625 L 20.28125 -9.734375 L 42.8125 -9.734375 L 42.8125 0 L 0.9375 0 L 25 -38.921875 L 4.359375 -38.921875 L 4.359375 -48.65625 Z M 44.40625 -48.65625 "/></g></g></g><g fill="#ffbd59" fill-opacity="1"><g transform="translate(199.982037, 72.64909)"><g><path d="M 28.25 -48.65625 L 47.875 0 L 35.96875 0 L 32.375 -9.734375 L 13.859375 -9.734375 L 10.265625 0 L -1.65625 0 L 17.984375 -48.65625 Z M 28.59375 -19.453125 L 23.171875 -33.609375 L 23.0625 -33.609375 L 17.625 -19.453125 Z M 28.59375 -19.453125 "/></g></g></g><g fill="#ffbd59" fill-opacity="1"><g transform="translate(241.488556, 72.64909)"><g><path d="M 14.625 -30.1875 L 14.625 0 L 3.53125 0 L 3.53125 -48.65625 L 14.625 -48.65625 L 33.96875 -18.453125 L 34.078125 -18.453125 L 34.078125 -48.65625 L 45.171875 -48.65625 L 45.171875 0 L 34.078125 0 L 14.75 -30.1875 Z M 14.625 -30.1875 "/></g></g></g><g fill="#ffbd59" fill-opacity="1"><g transform="translate(285.471354, 72.64909)"><g><path d="M 31.375 -48.65625 L 31.375 -38.921875 L 14.625 -38.921875 L 14.625 -29.25 L 30.65625 -29.25 L 30.65625 -19.515625 L 14.625 -19.515625 L 14.625 -9.734375 L 31.375 -9.734375 L 31.375 0 L 3.53125 0 L 3.53125 -48.65625 Z M 31.375 -48.65625 "/></g></g></g><g fill="#ffbd59" fill-opacity="1"><g transform="translate(314.950263, 72.64909)"><g><path d="M 0.46875 -38.921875 L 0.46875 -48.65625 L 34.671875 -48.65625 L 34.671875 -38.921875 L 23.109375 -38.921875 L 23.109375 0 L 12.03125 0 L 12.03125 -38.921875 Z M 0.46875 -38.921875 "/></g></g></g><g fill="#ffbd59" fill-opacity="1"><g transform="translate(345.372511, 72.64909)"><g><path d="M 0.46875 -38.921875 L 0.46875 -48.65625 L 34.671875 -48.65625 L 34.671875 -38.921875 L 23.109375 -38.921875 L 23.109375 0 L 12.03125 0 L 12.03125 -38.921875 Z M 0.46875 -38.921875 "/></g></g></g><g fill="#ffbd59" fill-opacity="1"><g transform="translate(375.794759, 72.64909)"><g><path d="M 14.625 -48.65625 L 14.625 0 L 3.53125 0 L 3.53125 -48.65625 Z M 14.625 -48.65625 "/></g></g></g><g fill="#ffbd59" fill-opacity="1"><g transform="translate(159.359901, 113.878052)"><g><path d="M 4.734375 -7.75 L 4.734375 0 L 2.5625 0 L 2.5625 -18.640625 L 7.671875 -18.640625 C 9.960938 -18.640625 11.648438 -18.203125 12.734375 -17.328125 C 13.828125 -16.453125 14.375 -15.132812 14.375 -13.375 C 14.375 -10.90625 13.125 -9.238281 10.625 -8.375 L 15.6875 0 L 13.125 0 L 8.625 -7.75 Z M 4.734375 -9.609375 L 7.703125 -9.609375 C 9.234375 -9.609375 10.351562 -9.910156 11.0625 -10.515625 C 11.78125 -11.128906 12.140625 -12.046875 12.140625 -13.265625 C 12.140625 -14.492188 11.773438 -15.378906 11.046875 -15.921875 C 10.316406 -16.460938 9.148438 -16.734375 7.546875 -16.734375 L 4.734375 -16.734375 Z M 4.734375 -9.609375 "/></g></g></g><g fill="#ffbd59" fill-opacity="1"><g transform="translate(175.494682, 113.878052)"><g><path d="M 12.953125 0 L 2.5625 0 L 2.5625 -18.640625 L 12.953125 -18.640625 L 12.953125 -16.71875 L 4.734375 -16.71875 L 4.734375 -10.703125 L 12.453125 -10.703125 L 12.453125 -8.796875 L 4.734375 -8.796875 L 4.734375 -1.9375 L 12.953125 -1.9375 Z M 12.953125 0 "/></g></g></g><g fill="#ffbd59" fill-opacity="1"><g transform="translate(190.010887, 113.878052)"><g><path d="M 14.375 -13.203125 C 14.375 -11.316406 13.726562 -9.863281 12.4375 -8.84375 C 11.15625 -7.832031 9.316406 -7.328125 6.921875 -7.328125 L 4.734375 -7.328125 L 4.734375 0 L 2.5625 0 L 2.5625 -18.640625 L 7.390625 -18.640625 C 12.046875 -18.640625 14.375 -16.828125 14.375 -13.203125 Z M 4.734375 -9.1875 L 6.6875 -9.1875 C 8.601562 -9.1875 9.988281 -9.492188 10.84375 -10.109375 C 11.707031 -10.734375 12.140625 -11.734375 12.140625 -13.109375 C 12.140625 -14.335938 11.734375 -15.253906 10.921875 -15.859375 C 10.117188 -16.460938 8.863281 -16.765625 7.15625 -16.765625 L 4.734375 -16.765625 Z M 4.734375 -9.1875 "/></g></g></g><g fill="#ffbd59" fill-opacity="1"><g transform="translate(205.725094, 113.878052)"><g><path d="M 4.734375 -7.75 L 4.734375 0 L 2.5625 0 L 2.5625 -18.640625 L 7.671875 -18.640625 C 9.960938 -18.640625 11.648438 -18.203125 12.734375 -17.328125 C 13.828125 -16.453125 14.375 -15.132812 14.375 -13.375 C 14.375 -10.90625 13.125 -9.238281 10.625 -8.375 L 15.6875 0 L 13.125 0 L 8.625 -7.75 Z M 4.734375 -9.609375 L 7.703125 -9.609375 C 9.234375 -9.609375 10.351562 -9.910156 11.0625 -10.515625 C 11.78125 -11.128906 12.140625 -12.046875 12.140625 -13.265625 C 12.140625 -14.492188 11.773438 -15.378906 11.046875 -15.921875 C 10.316406 -16.460938 9.148438 -16.734375 7.546875 -16.734375 L 4.734375 -16.734375 Z M 4.734375 -9.609375 "/></g></g></g><g fill="#ffbd59" fill-opacity="1"><g transform="translate(221.859875, 113.878052)"><g><path d="M 12.953125 0 L 2.5625 0 L 2.5625 -18.640625 L 12.953125 -18.640625 L 12.953125 -16.71875 L 4.734375 -16.71875 L 4.734375 -10.703125 L 12.453125 -10.703125 L 12.453125 -8.796875 L 4.734375 -8.796875 L 4.734375 -1.9375 L 12.953125 -1.9375 Z M 12.953125 0 "/></g></g></g><g fill="#ffbd59" fill-opacity="1"><g transform="translate(236.37608, 113.878052)"><g><path d="M 13.078125 -4.953125 C 13.078125 -3.316406 12.484375 -2.039062 11.296875 -1.125 C 10.109375 -0.207031 8.492188 0.25 6.453125 0.25 C 4.242188 0.25 2.539062 -0.03125 1.34375 -0.59375 L 1.34375 -2.6875 C 2.113281 -2.363281 2.945312 -2.109375 3.84375 -1.921875 C 4.75 -1.734375 5.644531 -1.640625 6.53125 -1.640625 C 7.96875 -1.640625 9.050781 -1.914062 9.78125 -2.46875 C 10.519531 -3.019531 10.890625 -3.78125 10.890625 -4.75 C 10.890625 -5.394531 10.757812 -5.921875 10.5 -6.328125 C 10.238281 -6.742188 9.800781 -7.125 9.1875 -7.46875 C 8.582031 -7.820312 7.660156 -8.222656 6.421875 -8.671875 C 4.691406 -9.285156 3.453125 -10.019531 2.703125 -10.875 C 1.960938 -11.726562 1.59375 -12.835938 1.59375 -14.203125 C 1.59375 -15.640625 2.128906 -16.78125 3.203125 -17.625 C 4.285156 -18.476562 5.71875 -18.90625 7.5 -18.90625 C 9.351562 -18.90625 11.054688 -18.566406 12.609375 -17.890625 L 11.9375 -16 C 10.394531 -16.644531 8.894531 -16.96875 7.4375 -16.96875 C 6.289062 -16.96875 5.394531 -16.71875 4.75 -16.21875 C 4.101562 -15.726562 3.78125 -15.046875 3.78125 -14.171875 C 3.78125 -13.523438 3.898438 -12.992188 4.140625 -12.578125 C 4.378906 -12.171875 4.78125 -11.796875 5.34375 -11.453125 C 5.914062 -11.109375 6.78125 -10.726562 7.9375 -10.3125 C 9.894531 -9.613281 11.238281 -8.863281 11.96875 -8.0625 C 12.707031 -7.269531 13.078125 -6.234375 13.078125 -4.953125 Z M 13.078125 -4.953125 "/></g></g></g><g fill="#ffbd59" fill-opacity="1"><g transform="translate(250.701115, 113.878052)"><g><path d="M 12.953125 0 L 2.5625 0 L 2.5625 -18.640625 L 12.953125 -18.640625 L 12.953125 -16.71875 L 4.734375 -16.71875 L 4.734375 -10.703125 L 12.453125 -10.703125 L 12.453125 -8.796875 L 4.734375 -8.796875 L 4.734375 -1.9375 L 12.953125 -1.9375 Z M 12.953125 0 "/></g></g></g><g fill="#ffbd59" fill-opacity="1"><g transform="translate(265.217321, 113.878052)"><g><path d="M 17.125 0 L 14.640625 0 L 4.46875 -15.640625 L 4.359375 -15.640625 C 4.492188 -13.804688 4.5625 -12.125 4.5625 -10.59375 L 4.5625 0 L 2.5625 0 L 2.5625 -18.640625 L 5.015625 -18.640625 L 15.171875 -3.0625 L 15.265625 -3.0625 C 15.253906 -3.289062 15.21875 -4.023438 15.15625 -5.265625 C 15.09375 -6.515625 15.070312 -7.40625 15.09375 -7.9375 L 15.09375 -18.640625 L 17.125 -18.640625 Z M 17.125 0 "/></g></g></g><g fill="#ffbd59" fill-opacity="1"><g transform="translate(284.895127, 113.878052)"><g><path d="M 8.296875 0 L 6.125 0 L 6.125 -16.71875 L 0.234375 -16.71875 L 0.234375 -18.640625 L 14.203125 -18.640625 L 14.203125 -16.71875 L 8.296875 -16.71875 Z M 8.296875 0 "/></g></g></g><g fill="#ffbd59" fill-opacity="1"><g transform="translate(299.334865, 113.878052)"><g><path d="M 14.28125 0 L 11.953125 -5.921875 L 4.484375 -5.921875 L 2.1875 0 L 0 0 L 7.375 -18.71875 L 9.1875 -18.71875 L 16.515625 0 Z M 11.28125 -7.875 L 9.109375 -13.65625 C 8.828125 -14.382812 8.539062 -15.28125 8.25 -16.34375 C 8.0625 -15.53125 7.789062 -14.632812 7.4375 -13.65625 L 5.25 -7.875 Z M 11.28125 -7.875 "/></g></g></g><g fill="#ffbd59" fill-opacity="1"><g transform="translate(315.851987, 113.878052)"><g><path d="M 8.296875 0 L 6.125 0 L 6.125 -16.71875 L 0.234375 -16.71875 L 0.234375 -18.640625 L 14.203125 -18.640625 L 14.203125 -16.71875 L 8.296875 -16.71875 Z M 8.296875 0 "/></g></g></g><g fill="#ffbd59" fill-opacity="1"><g transform="translate(330.291725, 113.878052)"><g><path d="M 2.5625 0 L 2.5625 -18.640625 L 4.734375 -18.640625 L 4.734375 0 Z M 2.5625 0 "/></g></g></g><g fill="#ffbd59" fill-opacity="1"><g transform="translate(337.568945, 113.878052)"><g><path d="M 18.734375 -9.34375 C 18.734375 -6.363281 17.976562 -4.019531 16.46875 -2.3125 C 14.96875 -0.601562 12.875 0.25 10.1875 0.25 C 7.4375 0.25 5.316406 -0.585938 3.828125 -2.265625 C 2.335938 -3.941406 1.59375 -6.3125 1.59375 -9.375 C 1.59375 -12.40625 2.335938 -14.753906 3.828125 -16.421875 C 5.328125 -18.097656 7.457031 -18.9375 10.21875 -18.9375 C 12.894531 -18.9375 14.984375 -18.082031 16.484375 -16.375 C 17.984375 -14.675781 18.734375 -12.332031 18.734375 -9.34375 Z M 3.890625 -9.34375 C 3.890625 -6.820312 4.425781 -4.90625 5.5 -3.59375 C 6.570312 -2.289062 8.132812 -1.640625 10.1875 -1.640625 C 12.25 -1.640625 13.804688 -2.289062 14.859375 -3.59375 C 15.921875 -4.894531 16.453125 -6.8125 16.453125 -9.34375 C 16.453125 -11.851562 15.925781 -13.753906 14.875 -15.046875 C 13.820312 -16.347656 12.269531 -17 10.21875 -17 C 8.144531 -17 6.570312 -16.34375 5.5 -15.03125 C 4.425781 -13.726562 3.890625 -11.832031 3.890625 -9.34375 Z M 3.890625 -9.34375 "/></g></g></g><g fill="#ffbd59" fill-opacity="1"><g transform="translate(357.89673, 113.878052)"><g><path d="M 17.125 0 L 14.640625 0 L 4.46875 -15.640625 L 4.359375 -15.640625 C 4.492188 -13.804688 4.5625 -12.125 4.5625 -10.59375 L 4.5625 0 L 2.5625 0 L 2.5625 -18.640625 L 5.015625 -18.640625 L 15.171875 -3.0625 L 15.265625 -3.0625 C 15.253906 -3.289062 15.21875 -4.023438 15.15625 -5.265625 C 15.09375 -6.515625 15.070312 -7.40625 15.09375 -7.9375 L 15.09375 -18.640625 L 17.125 -18.640625 Z M 17.125 0 "/></g></g></g><g fill="#ffbd59" fill-opacity="1"><g transform="translate(377.574537, 113.878052)"><g><path d="M 13.078125 -4.953125 C 13.078125 -3.316406 12.484375 -2.039062 11.296875 -1.125 C 10.109375 -0.207031 8.492188 0.25 6.453125 0.25 C 4.242188 0.25 2.539062 -0.03125 1.34375 -0.59375 L 1.34375 -2.6875 C 2.113281 -2.363281 2.945312 -2.109375 3.84375 -1.921875 C 4.75 -1.734375 5.644531 -1.640625 6.53125 -1.640625 C 7.96875 -1.640625 9.050781 -1.914062 9.78125 -2.46875 C 10.519531 -3.019531 10.890625 -3.78125 10.890625 -4.75 C 10.890625 -5.394531 10.757812 -5.921875 10.5 -6.328125 C 10.238281 -6.742188 9.800781 -7.125 9.1875 -7.46875 C 8.582031 -7.820312 7.660156 -8.222656 6.421875 -8.671875 C 4.691406 -9.285156 3.453125 -10.019531 2.703125 -10.875 C 1.960938 -11.726562 1.59375 -12.835938 1.59375 -14.203125 C 1.59375 -15.640625 2.128906 -16.78125 3.203125 -17.625 C 4.285156 -18.476562 5.71875 -18.90625 7.5 -18.90625 C 9.351562 -18.90625 11.054688 -18.566406 12.609375 -17.890625 L 11.9375 -16 C 10.394531 -16.644531 8.894531 -16.96875 7.4375 -16.96875 C 6.289062 -16.96875 5.394531 -16.71875 4.75 -16.21875 C 4.101562 -15.726562 3.78125 -15.046875 3.78125 -14.171875 C 3.78125 -13.523438 3.898438 -12.992188 4.140625 -12.578125 C 4.378906 -12.171875 4.78125 -11.796875 5.34375 -11.453125 C 5.914062 -11.109375 6.78125 -10.726562 7.9375 -10.3125 C 9.894531 -9.613281 11.238281 -8.863281 11.96875 -8.0625 C 12.707031 -7.269531 13.078125 -6.234375 13.078125 -4.953125 Z M 13.078125 -4.953125 "/></g></g></g></svg>